<?xml version="1.0" encoding="iso-8859-1"?>
<!-- Generator: Adobe Illustrator 15.0.0, SVG Export Plug-In . SVG Version: 6.00 Build 0)  -->
<!DOCTYPE svg PUBLIC "-//W3C//DTD SVG 1.1//EN" "http://www.w3.org/Graphics/SVG/1.1/DTD/svg11.dtd">
<svg version="1.1" id="Layer_1" xmlns="http://www.w3.org/2000/svg" xmlns:xlink="http://www.w3.org/1999/xlink"  
	 viewBox="0 0 54.426 41.602" style="enable-background:new 0 0 54.426 41.602;"
	 xml:space="preserve">
<g id="_x31_5">
	<g>
		<path style="fill:currentColor;" d="M38.617,2.709c0-0.824-0.67-1.49-1.492-1.49c-0.824,0-1.49,0.666-1.49,1.49V6.02
			c0,0.824,0.666,1.492,1.49,1.492c0.822,0,1.492-0.668,1.492-1.492V2.709z"/>
		<path style="fill:currentColor;" d="M26.984,6.279c-0.582-0.582-1.525-0.582-2.107,0s-0.582,1.527,0,2.109l2.342,2.342
			c0.582,0.582,1.527,0.582,2.109,0c0.58-0.584,0.58-1.526-0.002-2.108L26.984,6.279z"/>
		<path style="fill:currentColor;" d="M47.236,30.787c0.582,0.582,1.527,0.582,2.109,0c0.581-0.582,0.581-1.527,0-2.107l-2.343-2.342
			c-0.582-0.582-1.524-0.582-2.106,0c-0.584,0.582-0.584,1.524,0,2.106L47.236,30.787z"/>
		<path style="fill:currentColor;" d="M52.936,20.037c0.822,0,1.49-0.666,1.49-1.49s-0.668-1.49-1.49-1.49h-3.311
			c-0.822,0-1.492,0.666-1.492,1.49s0.67,1.49,1.492,1.49H52.936z"/>
		<path style="fill:currentColor;" d="M49.365,8.408c0.584-0.582,0.584-1.527,0-2.109c-0.582-0.582-1.525-0.582-2.107,0l-2.342,2.342
			c-0.584,0.582-0.584,1.527,0,2.109c0.582,0.582,1.525,0.582,2.105,0L49.365,8.408z"/>
		<path style="fill:currentColor;" d="M46.393,18.566c0-5.119-4.147-9.27-9.268-9.27c-3.025,0-5.713,1.451-7.402,3.693
			c-1.902-0.679-3.727-0.628-4.57-0.4c-2.012-2.004-5.363-3.475-8.748-3.475c-6.717,0-12.221,5.192-12.715,11.782
			C1.484,22.168,0,24.545,0,27.27c0,4.062,3.289,7.353,7.35,7.353h1.025c0.699,0,1.236-0.691,1.236-1.41
			c0-0.775-0.633-1.404-1.408-1.404H7.984c-2.744,0-4.771-1.988-4.771-4.557c0-2.101,1.334-3.941,3.418-4.57
			c0.248-9.92,8.963-10.426,9.932-10.426c2.879,0,5.736,1.412,7.572,3.502c3.717-1.221,8.811,1.645,8.242,7.184
			c1.449-0.588,2.9-0.541,3.316-0.541c2.082,0,4.596,1.822,4.596,4.812c0,2.539-2.057,4.598-4.596,4.598h-0.215
			c-0.775,0-1.408,0.631-1.408,1.408c0,0.775,0.633,1.406,1.408,1.406h0.209c4.172,0,7.555-3.383,7.555-7.558
			c0,0,0.004-0.569-0.158-1.399C45.107,23.965,46.393,21.416,46.393,18.566z M41.912,22.678c-1.08-1.66-3.035-3.158-6.574-3.158
			c-0.572-2.365-1.695-3.979-3.004-5.061c1.156-1.351,2.873-2.203,4.791-2.203c3.484,0,6.311,2.824,6.311,6.311
			C43.436,20.137,42.861,21.572,41.912,22.678z"/>
	</g>
	<g>
		<path style="fill:currentColor;" d="M24.053,33.744l-0.947-0.548l0.947-0.545c0.328-0.188,0.439-0.606,0.25-0.934
			s-0.607-0.438-0.932-0.25l-0.947,0.547v-1.092c0-0.377-0.305-0.684-0.682-0.684c-0.379,0-0.684,0.307-0.684,0.684v1.092
			l-0.947-0.547c-0.326-0.188-0.742-0.076-0.932,0.25c-0.188,0.326-0.076,0.744,0.25,0.934l0.945,0.545l-0.945,0.548
			c-0.326,0.188-0.438,0.604-0.25,0.934c0.189,0.326,0.605,0.438,0.932,0.25l0.947-0.547v1.092c0,0.379,0.305,0.685,0.684,0.685
			c0.377,0,0.682-0.306,0.682-0.685v-1.092l0.947,0.547c0.324,0.188,0.742,0.076,0.932-0.25
			C24.492,34.35,24.381,33.934,24.053,33.744z"/>
		<path style="fill:currentColor;" d="M31.471,33.744l-0.947-0.548l0.947-0.545c0.326-0.188,0.439-0.606,0.248-0.934
			c-0.186-0.326-0.604-0.438-0.932-0.25l-0.947,0.547v-1.092c0-0.377-0.305-0.684-0.682-0.684s-0.684,0.307-0.684,0.684v1.092
			l-0.946-0.547c-0.324-0.188-0.742-0.076-0.932,0.25s-0.076,0.744,0.248,0.934l0.947,0.545l-0.947,0.548
			c-0.324,0.188-0.438,0.604-0.248,0.934c0.188,0.326,0.607,0.438,0.932,0.25l0.946-0.547v1.092c0,0.379,0.307,0.685,0.684,0.685
			s0.682-0.306,0.682-0.685v-1.092l0.947,0.547c0.328,0.188,0.746,0.076,0.932-0.25C31.91,34.35,31.797,33.934,31.471,33.744z"/>
		<path style="fill:currentColor;" d="M16.635,33.744l-0.947-0.548l0.947-0.545c0.326-0.188,0.439-0.606,0.25-0.934
			c-0.188-0.326-0.605-0.438-0.932-0.25l-0.947,0.547v-1.092c0-0.377-0.305-0.684-0.684-0.684c-0.377,0-0.68,0.307-0.68,0.684v1.092
			l-0.947-0.547c-0.328-0.188-0.744-0.076-0.934,0.25c-0.188,0.326-0.076,0.744,0.25,0.934l0.947,0.545l-0.947,0.548
			c-0.326,0.188-0.438,0.604-0.25,0.934c0.189,0.326,0.605,0.438,0.934,0.25l0.947-0.547v1.092c0,0.379,0.303,0.685,0.68,0.685
			c0.379,0,0.684-0.306,0.684-0.685v-1.092l0.947,0.547c0.326,0.188,0.744,0.076,0.932-0.25
			C17.074,34.35,16.961,33.934,16.635,33.744z"/>
		<path style="fill:currentColor;" d="M20.207,40.41l-0.947-0.548l0.947-0.547c0.326-0.188,0.438-0.604,0.25-0.934
			c-0.189-0.326-0.607-0.437-0.934-0.248l-0.945,0.547v-1.094c0-0.377-0.307-0.683-0.684-0.683c-0.375,0-0.682,0.306-0.682,0.683
			v1.094l-0.947-0.547c-0.324-0.189-0.744-0.076-0.932,0.248c-0.189,0.328-0.076,0.746,0.25,0.934l0.945,0.547l-0.945,0.548
			c-0.326,0.188-0.439,0.604-0.25,0.932c0.188,0.328,0.607,0.439,0.932,0.25l0.947-0.547v1.094c0,0.377,0.307,0.682,0.682,0.682
			c0.377,0,0.684-0.305,0.684-0.682v-1.094l0.945,0.547c0.326,0.189,0.744,0.078,0.934-0.25
			C20.645,41.016,20.533,40.598,20.207,40.41z"/>
		<path style="fill:currentColor;" d="M27.305,40.41l-0.949-0.548l0.949-0.547c0.326-0.188,0.439-0.604,0.25-0.934
			c-0.189-0.326-0.607-0.437-0.934-0.248l-0.945,0.547v-1.094c0-0.377-0.307-0.683-0.682-0.683c-0.381,0-0.684,0.306-0.684,0.683
			v1.094l-0.947-0.547c-0.326-0.189-0.744-0.076-0.934,0.248c-0.188,0.328-0.076,0.746,0.25,0.934l0.945,0.547L22.68,40.41
			c-0.326,0.188-0.438,0.604-0.25,0.932c0.189,0.328,0.607,0.439,0.934,0.25l0.947-0.547v1.094c0,0.377,0.303,0.682,0.684,0.682
			c0.375,0,0.682-0.305,0.682-0.682v-1.094l0.945,0.547c0.326,0.189,0.744,0.078,0.934-0.25
			C27.744,41.016,27.631,40.598,27.305,40.41z"/>
	</g>
</g>
</svg>
