<?xml version="1.0" encoding="iso-8859-1"?>
<!-- Generator: Adobe Illustrator 15.0.0, SVG Export Plug-In . SVG Version: 6.00 Build 0)  -->
<!DOCTYPE svg PUBLIC "-//W3C//DTD SVG 1.1//EN" "http://www.w3.org/Graphics/SVG/1.1/DTD/svg11.dtd">
<svg version="1.1" id="Layer_1" xmlns="http://www.w3.org/2000/svg" xmlns:xlink="http://www.w3.org/1999/xlink"  
	 viewBox="0 0 55.264 42.307" style="enable-background:new 0 0 55.264 42.307;"
	 xml:space="preserve">
<g id="_x31_4">
	<g>
		<path style="fill:currentColor;" d="M39.449,1.49c0-0.823-0.666-1.489-1.49-1.489c-0.822,0-1.49,0.666-1.492,1.489l0.002,3.312
			c0,0.825,0.668,1.492,1.49,1.492c0.824,0,1.49-0.667,1.49-1.492V1.49z"/>
		<path style="fill:currentColor;" d="M27.82,5.061c-0.582-0.582-1.526-0.582-2.108,0s-0.582,1.527,0,2.109l2.342,2.341
			c0.582,0.583,1.527,0.583,2.107,0c0.582-0.583,0.582-1.525,0-2.108L27.82,5.061z"/>
		<path style="fill:currentColor;" d="M48.072,29.568c0.58,0.583,1.525,0.583,2.107,0.001c0.582-0.583,0.582-1.526,0-2.107l-2.342-2.342
			c-0.582-0.583-1.525-0.583-2.107,0c-0.582,0.582-0.582,1.524,0,2.106L48.072,29.568z"/>
		<path style="fill:currentColor;" d="M53.77,18.819c0.824,0,1.494-0.667,1.494-1.489c0-0.824-0.67-1.491-1.494-1.491h-3.311
			c-0.824,0-1.492,0.667-1.492,1.491c0,0.822,0.668,1.489,1.492,1.488L53.77,18.819z"/>
		<path style="fill:currentColor;" d="M50.197,7.189c0.585-0.582,0.585-1.526,0-2.108c-0.579-0.582-1.522-0.582-2.106,0l-2.34,2.343
			c-0.584,0.581-0.584,1.526,0,2.108c0.582,0.581,1.524,0.581,2.106,0L50.197,7.189z"/>
		<path style="fill:currentColor;" d="M47.227,17.346c0-5.117-4.147-9.268-9.268-9.268c-3.025,0-5.711,1.45-7.402,3.692
			c-1.904-0.677-3.727-0.627-4.572-0.399c-2.012-2.003-5.358-3.475-8.745-3.475c-6.72,0-12.222,5.192-12.718,11.783
			c-2.203,1.271-3.688,3.646-3.688,6.37c0,4.061,3.291,7.351,7.348,7.351h2.756c0.697,0,1.232-0.689,1.232-1.407
			c0-0.776-0.631-1.405-1.406-1.405H8.818c-2.746,0-4.77-1.987-4.77-4.557c0-2.101,1.332-3.94,3.416-4.569
			c0.248-9.921,8.963-10.427,9.932-10.427c2.879,0,5.736,1.41,7.572,3.502c3.717-1.222,8.811,1.645,8.24,7.184
			c1.451-0.588,2.903-0.541,3.317-0.541c2.08,0,4.599,1.822,4.599,4.812c0,2.538-2.062,4.598-4.599,4.598h-2.774
			c-0.777,0-1.406,0.631-1.406,1.408c0,0.774,0.629,1.404,1.406,1.404h2.77c4.172,0,7.556-3.382,7.556-7.555
			c0,0,0.004-0.571-0.158-1.401C45.941,22.746,47.227,20.197,47.227,17.346z M42.744,21.459c-1.08-1.66-3.033-3.158-6.57-3.158
			c-0.574-2.365-1.697-3.979-3.006-5.061c1.156-1.351,2.875-2.203,4.791-2.203c3.483,0,6.309,2.823,6.309,6.309
			C44.268,18.918,43.693,20.354,42.744,21.459z"/>
	</g>
	<path style="fill:currentColor;" d="M20.361,32.525l-0.946-0.547l0.946-0.545c0.326-0.188,0.438-0.606,0.25-0.934
		c-0.188-0.326-0.606-0.438-0.934-0.25l-0.947,0.547v-1.094c0-0.376-0.305-0.683-0.682-0.683s-0.682,0.307-0.682,0.683v1.094
		L16.42,30.25c-0.326-0.188-0.744-0.076-0.933,0.25s-0.077,0.744,0.248,0.934l0.947,0.545l-0.947,0.547
		c-0.325,0.189-0.438,0.605-0.248,0.934c0.188,0.327,0.605,0.438,0.933,0.25l0.947-0.548v1.094c0,0.378,0.305,0.684,0.682,0.684
		s0.682-0.306,0.682-0.684v-1.092l0.947,0.546c0.326,0.188,0.744,0.077,0.934-0.25C20.799,33.132,20.688,32.715,20.361,32.525z"/>
	<path style="fill:currentColor;" d="M28.836,32.525l-0.947-0.547l0.947-0.545c0.326-0.188,0.438-0.606,0.25-0.934
		c-0.189-0.326-0.607-0.438-0.935-0.25l-0.944,0.547v-1.094c0-0.376-0.308-0.683-0.685-0.683s-0.684,0.307-0.684,0.683v1.094
		l-0.943-0.547c-0.33-0.188-0.744-0.076-0.934,0.25c-0.19,0.326-0.076,0.744,0.25,0.934l0.947,0.545l-0.947,0.547
		c-0.326,0.189-0.439,0.605-0.25,0.934c0.188,0.328,0.604,0.438,0.932,0.25l0.945-0.548v1.094c0,0.378,0.307,0.684,0.684,0.684
		s0.685-0.306,0.685-0.684v-1.092l0.944,0.546c0.326,0.188,0.744,0.077,0.935-0.25C29.273,33.132,29.162,32.715,28.836,32.525z"/>
	<path style="fill:currentColor;" d="M24.781,39.895l-0.947-0.547l0.947-0.546c0.327-0.188,0.438-0.606,0.252-0.933
		c-0.189-0.327-0.607-0.438-0.935-0.25l-0.947,0.547v-1.095c0-0.376-0.305-0.682-0.682-0.682s-0.682,0.306-0.682,0.682v1.095
		l-0.947-0.547c-0.326-0.189-0.744-0.076-0.932,0.25c-0.189,0.325-0.078,0.743,0.248,0.933l0.946,0.546l-0.946,0.547
		c-0.326,0.188-0.438,0.605-0.248,0.934c0.188,0.326,0.604,0.438,0.932,0.249l0.947-0.546v1.093c0,0.377,0.305,0.684,0.682,0.684
		s0.682-0.307,0.682-0.684V40.53l0.947,0.547c0.326,0.188,0.744,0.077,0.935-0.249C25.221,40.5,25.109,40.082,24.781,39.895z"/>
</g>
</svg>
