<?xml version="1.0" encoding="iso-8859-1"?>
<!-- Generator: Adobe Illustrator 15.0.0, SVG Export Plug-In . SVG Version: 6.00 Build 0)  -->
<!DOCTYPE svg PUBLIC "-//W3C//DTD SVG 1.1//EN" "http://www.w3.org/Graphics/SVG/1.1/DTD/svg11.dtd">
<svg version="1.1" id="Layer_1" xmlns="http://www.w3.org/2000/svg" xmlns:xlink="http://www.w3.org/1999/xlink"  
	 viewBox="0 0 54.428 47.123" style="enable-background:new 0 0 54.428 47.123;"
	 xml:space="preserve">
<g id="_x31_7">
	<g>
		<path style="fill:currentColor;" d="M38.615,1.49c0-0.824-0.666-1.49-1.492-1.49c-0.822,0-1.488,0.666-1.49,1.49l0.002,3.312
			c0,0.824,0.666,1.491,1.488,1.491c0.826,0,1.492-0.667,1.492-1.491V1.49L38.615,1.49z"/>
		<path style="fill:currentColor;" d="M26.984,5.061c-0.582-0.582-1.526-0.582-2.106,0c-0.582,0.582-0.582,1.527,0,2.109l2.342,2.341
			c0.58,0.583,1.527,0.583,2.109,0c0.58-0.583,0.58-1.525-0.002-2.108L26.984,5.061z"/>
		<path style="fill:currentColor;" d="M47.238,29.567c0.58,0.584,1.525,0.584,2.107,0.002c0.582-0.584,0.582-1.527,0-2.108l-2.342-2.342
			c-0.582-0.583-1.525-0.583-2.109,0c-0.58,0.582-0.58,1.524,0,2.106L47.238,29.567z"/>
		<path style="fill:currentColor;" d="M52.936,18.819c0.824,0,1.492-0.667,1.492-1.49c0-0.824-0.668-1.491-1.49-1.491h-3.312
			c-0.824,0-1.492,0.667-1.492,1.491c0,0.823,0.668,1.49,1.492,1.489L52.936,18.819z"/>
		<path style="fill:currentColor;" d="M49.363,7.189c0.584-0.582,0.584-1.527,0-2.109c-0.579-0.582-1.522-0.582-2.104,0l-2.344,2.343
			c-0.582,0.581-0.582,1.526,0,2.108c0.584,0.582,1.526,0.582,2.106,0L49.363,7.189z"/>
		<path style="fill:currentColor;" d="M46.393,17.346c0-5.117-4.146-9.268-9.27-9.268c-3.023,0-5.709,1.451-7.4,3.693
			c-1.904-0.677-3.727-0.627-4.572-0.4c-2.012-2.003-5.36-3.474-8.746-3.474c-6.719,0-12.221,5.192-12.717,11.783
			C1.484,20.95,0,23.326,0,26.051c0,4.062,3.289,7.351,7.348,7.351h6.988c0.699,0,1.233-0.689,1.233-1.407
			c0-0.776-0.629-1.405-1.405-1.405H7.984c-2.743,0-4.77-1.986-4.77-4.557c0-2.1,1.332-3.94,3.416-4.569
			c0.248-9.921,8.963-10.427,9.932-10.427c2.879,0,5.736,1.411,7.572,3.502c3.717-1.221,8.811,1.645,8.24,7.184
			c1.451-0.588,2.901-0.541,3.317-0.541c2.082,0,4.597,1.822,4.597,4.811c0,2.539-2.06,4.598-4.597,4.598h-7.233
			c-0.777,0-1.408,0.632-1.408,1.408c0,0.774,0.631,1.405,1.408,1.405h7.229c4.172,0,7.556-3.383,7.556-7.555
			c0,0,0.004-0.572-0.158-1.402C45.107,22.746,46.393,20.197,46.393,17.346z M41.91,21.459c-1.08-1.661-3.033-3.158-6.572-3.158
			c-0.572-2.365-1.695-3.979-3.004-5.061c1.156-1.35,2.875-2.203,4.789-2.203c3.485,0,6.311,2.825,6.311,6.309
			C43.434,18.918,42.861,20.354,41.91,21.459z"/>
	</g>
	<path style="fill:currentColor;" d="M19.434,39.494c-0.283,0.44-5.021,7.629-5.021,7.629s8.606-7.479,8.924-7.754
		c0.533-0.468,0.494-0.595,0.121-1.286c-0.267-0.495-1.162-2.161-1.385-2.562c-0.259-0.457-0.296-0.446-0.031-0.873
		c0.26-0.426,5.492-9.201,5.492-9.201s-8.41,7.222-9.103,7.82c-0.988,0.854-0.973,1.016-0.461,2.129
		c0.262,0.569,1.316,2.834,1.519,3.213C19.699,39.01,19.756,38.992,19.434,39.494z"/>
</g>
</svg>
