<?xml version="1.0" encoding="iso-8859-1"?>
<!-- Generator: Adobe Illustrator 15.0.0, SVG Export Plug-In . SVG Version: 6.00 Build 0)  -->
<!DOCTYPE svg PUBLIC "-//W3C//DTD SVG 1.1//EN" "http://www.w3.org/Graphics/SVG/1.1/DTD/svg11.dtd">
<svg version="1.1" id="Layer_1" xmlns="http://www.w3.org/2000/svg" xmlns:xlink="http://www.w3.org/1999/xlink"  
	 viewBox="0 0 54.428 41.654" style="enable-background:new 0 0 54.428 41.654;"
	 xml:space="preserve">
<g id="_x31_6">
	<g>
		<path style="fill:currentColor;" d="M38.617,1.49c0-0.824-0.668-1.49-1.492-1.49c-0.822,0-1.49,0.667-1.49,1.49v3.312
			c0,0.823,0.668,1.49,1.49,1.49c0.824,0,1.492-0.667,1.492-1.49V1.49z"/>
		<path style="fill:currentColor;" d="M26.986,5.061c-0.582-0.581-1.526-0.581-2.106,0c-0.582,0.583-0.582,1.527,0,2.109l2.34,2.342
			c0.582,0.582,1.527,0.582,2.109,0c0.582-0.583,0.582-1.525,0-2.108L26.986,5.061z"/>
		<path style="fill:currentColor;" d="M47.238,29.568c0.582,0.584,1.525,0.584,2.107,0.001c0.584-0.583,0.584-1.525,0-2.107l-2.34-2.342
			c-0.584-0.583-1.527-0.583-2.111,0c-0.58,0.582-0.58,1.524,0,2.106L47.238,29.568z"/>
		<path style="fill:currentColor;" d="M52.936,18.82c0.826,0,1.492-0.668,1.492-1.49c0-0.824-0.666-1.491-1.492-1.491h-3.311
			c-0.822,0-1.492,0.667-1.492,1.491c0,0.822,0.67,1.49,1.492,1.489L52.936,18.82z"/>
		<path style="fill:currentColor;" d="M49.365,7.189c0.584-0.582,0.584-1.526,0-2.107c-0.582-0.583-1.525-0.583-2.109,0l-2.34,2.342
			c-0.584,0.581-0.584,1.526,0,2.108c0.582,0.581,1.524,0.581,2.106,0L49.365,7.189z"/>
		<path style="fill:currentColor;" d="M46.395,17.348c0-5.119-4.149-9.269-9.27-9.269c-3.023,0-5.711,1.449-7.402,3.691
			c-1.902-0.677-3.729-0.627-4.57-0.399c-2.012-2.002-5.36-3.474-8.748-3.474c-6.717,0-12.221,5.192-12.715,11.783
			C1.484,20.95,0,23.326,0,26.051c0,4.061,3.291,7.351,7.348,7.351h1.027c0.699,0,1.233-0.688,1.233-1.406
			c0-0.777-0.629-1.406-1.405-1.406H7.986c-2.745,0-4.771-1.986-4.771-4.557c0-2.101,1.334-3.939,3.416-4.569
			c0.248-9.921,8.965-10.427,9.932-10.427c2.881,0,5.736,1.412,7.572,3.502c3.717-1.222,8.811,1.645,8.242,7.184
			c1.451-0.587,2.901-0.541,3.317-0.541c2.08,0,4.597,1.822,4.597,4.812c0,2.54-2.062,4.598-4.597,4.598H35.48
			c-0.776,0-1.408,0.631-1.408,1.408c0,0.775,0.632,1.404,1.408,1.404h0.209c4.172,0,7.554-3.382,7.554-7.555
			c0,0,0.004-0.571-0.158-1.399C45.107,22.746,46.395,20.197,46.395,17.348z M41.912,21.459c-1.082-1.661-3.033-3.158-6.572-3.158
			c-0.574-2.364-1.697-3.979-3.004-5.061c1.156-1.35,2.873-2.203,4.789-2.203c3.483,0,6.311,2.825,6.311,6.311
			C43.436,18.918,42.861,20.355,41.912,21.459z"/>
	</g>
	<g>
		<path style="fill:currentColor;" d="M16.674,31.29c0.412-0.714,0.168-1.628-0.545-2.04c-0.715-0.412-1.627-0.167-2.039,0.547
			l-1.66,2.872c-0.412,0.714-0.168,1.628,0.547,2.039c0.715,0.413,1.627,0.169,2.041-0.547L16.674,31.29z"/>
		<path style="fill:currentColor;" d="M31.545,31.29c0.412-0.714,0.168-1.628-0.547-2.04s-1.627-0.167-2.039,0.547l-1.656,2.872
			c-0.416,0.714-0.17,1.628,0.543,2.039c0.715,0.413,1.629,0.169,2.041-0.547L31.545,31.29z"/>
		<path style="fill:currentColor;" d="M25.424,38.009c0.414-0.715,0.17-1.627-0.545-2.04c-0.715-0.412-1.629-0.167-2.041,0.547
			l-1.656,2.872c-0.414,0.714-0.168,1.628,0.545,2.04c0.715,0.412,1.629,0.167,2.039-0.547L25.424,38.009z"/>
		<path style="fill:currentColor;" d="M18.709,39.246l-0.945-0.547l0.945-0.548c0.326-0.188,0.438-0.606,0.252-0.933
			c-0.188-0.327-0.607-0.438-0.935-0.251l-0.946,0.547v-1.093c0-0.377-0.306-0.681-0.683-0.681s-0.684,0.304-0.684,0.681v1.093
			l-0.945-0.547c-0.324-0.188-0.744-0.076-0.934,0.251c-0.188,0.325-0.076,0.743,0.252,0.933l0.945,0.548l-0.945,0.545
			c-0.328,0.188-0.439,0.604-0.252,0.934c0.188,0.326,0.608,0.438,0.934,0.25l0.945-0.547v1.093c0,0.378,0.307,0.683,0.684,0.683
			s0.683-0.305,0.683-0.683V39.88l0.946,0.548c0.326,0.188,0.746,0.076,0.935-0.25C19.149,39.852,19.035,39.434,18.709,39.246z"/>
		<path style="fill:currentColor;" d="M24.615,32.525l-0.947-0.547l0.947-0.547c0.323-0.188,0.438-0.604,0.25-0.932
			c-0.189-0.327-0.605-0.438-0.935-0.25l-0.947,0.547v-1.094c0-0.377-0.305-0.683-0.682-0.683s-0.682,0.306-0.682,0.683v1.094
			l-0.947-0.547c-0.326-0.189-0.742-0.076-0.93,0.25c-0.191,0.326-0.078,0.744,0.248,0.932l0.944,0.547l-0.944,0.545
			c-0.326,0.189-0.439,0.607-0.248,0.935c0.186,0.327,0.604,0.438,0.93,0.25l0.947-0.546v1.093c0,0.379,0.305,0.683,0.682,0.683
			s0.682-0.304,0.682-0.683v-1.093l0.947,0.546c0.328,0.188,0.744,0.077,0.935-0.25C25.053,33.131,24.939,32.715,24.615,32.525z"/>
	</g>
</g>
</svg>
