<?xml version="1.0" encoding="iso-8859-1"?>
<!-- Generator: Adobe Illustrator 15.0.0, SVG Export Plug-In . SVG Version: 6.00 Build 0)  -->
<!DOCTYPE svg PUBLIC "-//W3C//DTD SVG 1.1//EN" "http://www.w3.org/Graphics/SVG/1.1/DTD/svg11.dtd">
<svg version="1.1" id="Layer_1" xmlns="http://www.w3.org/2000/svg" xmlns:xlink="http://www.w3.org/1999/xlink"  
	 viewBox="0 0 54.426 45.789" style="enable-background:new 0 0 54.426 45.789;"
	 xml:space="preserve">
<g id="_x31_9">
	<g>
		<path style="fill:currentColor;" d="M38.615,1.49c0-0.824-0.668-1.49-1.492-1.49c-0.822,0-1.49,0.668-1.49,1.49v3.312
			c0,0.824,0.668,1.49,1.49,1.49c0.824,0,1.492-0.666,1.492-1.49V1.49z"/>
		<path style="fill:currentColor;" d="M26.984,5.061c-0.582-0.582-1.525-0.582-2.107,0s-0.582,1.527,0,2.109l2.342,2.342
			c0.58,0.584,1.525,0.584,2.107,0s0.582-1.525,0-2.109L26.984,5.061z"/>
		<path style="fill:currentColor;" d="M47.236,29.568c0.582,0.584,1.525,0.584,2.109,0.002c0.581-0.584,0.581-1.527,0-2.109l-2.343-2.342
			c-0.582-0.582-1.526-0.582-2.108,0s-0.582,1.525,0,2.107L47.236,29.568z"/>
		<path style="fill:currentColor;" d="M52.936,18.82c0.824,0,1.49-0.668,1.49-1.49c0-0.824-0.666-1.492-1.488-1.492h-3.312
			c-0.824,0-1.492,0.668-1.492,1.492c0,0.822,0.668,1.49,1.492,1.49H52.936z"/>
		<path style="fill:currentColor;" d="M49.363,7.189c0.582-0.582,0.584-1.527,0-2.107c-0.58-0.584-1.525-0.584-2.107,0l-2.342,2.342
			c-0.584,0.582-0.584,1.525,0,2.107c0.584,0.582,1.527,0.582,2.107,0L49.363,7.189z"/>
		<path style="fill:currentColor;" d="M46.393,17.346c0-5.117-4.147-9.268-9.27-9.268c-3.023,0-5.711,1.451-7.402,3.693
			c-1.902-0.676-3.727-0.627-4.57-0.4c-2.012-2.002-5.359-3.473-8.748-3.473c-6.717,0-12.221,5.191-12.717,11.783
			C1.482,20.951,0,23.326,0,26.053c0,4.059,3.289,7.35,7.346,7.35h1.021c0.699,0,1.236-0.69,1.236-1.407
			c0-0.777-0.631-1.406-1.408-1.406H7.982c-2.744,0-4.77-1.986-4.77-4.557c0-2.101,1.334-3.94,3.416-4.569
			c0.248-9.922,8.965-10.428,9.934-10.428c2.877,0,5.734,1.412,7.572,3.504c3.716-1.223,8.812,1.643,8.24,7.182
			c1.451-0.588,2.901-0.541,3.317-0.541c2.08,0,4.597,1.822,4.597,4.811c0,2.539-2.06,4.598-4.597,4.598H35.23
			c-0.776,0-1.407,0.632-1.407,1.408c0,0.775,0.631,1.406,1.407,1.406h0.455c4.172,0,7.556-3.381,7.556-7.555
			c0,0,0.002-0.572-0.16-1.402C45.107,22.746,46.393,20.197,46.393,17.346z M41.91,21.459c-1.08-1.66-3.033-3.158-6.572-3.158
			c-0.574-2.365-1.695-3.979-3.004-5.061c1.156-1.348,2.873-2.203,4.789-2.203c3.486,0,6.311,2.826,6.311,6.309
			C43.434,18.918,42.859,20.355,41.91,21.459z"/>
	</g>
	<g>
		<circle style="fill:currentColor;" cx="24.53" cy="44.295" r="1.493"/>
		<circle style="fill:currentColor;" cx="18.907" cy="41.227" r="1.493"/>
		<circle style="fill:currentColor;" cx="30.156" cy="41.227" r="1.492"/>
		<path style="fill:currentColor;" d="M19.398,29.855c0-0.271-0.221-0.49-0.49-0.49c-0.269,0-0.488,0.219-0.488,0.49v7.855
			c0,0.27,0.219,0.488,0.488,0.488c0.269,0,0.49-0.22,0.49-0.488V29.855z"/>
		<circle style="fill:currentColor;" cx="13.284" cy="44.295" r="1.493"/>
		<path style="fill:currentColor;" d="M13.773,29.855c0-0.271-0.217-0.49-0.49-0.49c-0.27,0-0.49,0.219-0.49,0.49v10.922
			c0,0.271,0.221,0.492,0.49,0.492c0.273,0,0.49-0.221,0.49-0.492V29.855z"/>
		<path style="fill:currentColor;" d="M25.021,29.855c0-0.271-0.219-0.49-0.49-0.49s-0.49,0.219-0.49,0.49v10.922
			c0,0.271,0.221,0.492,0.49,0.492c0.271,0,0.49-0.221,0.49-0.492V29.855z"/>
		<path style="fill:currentColor;" d="M30.645,29.855c0-0.271-0.219-0.49-0.487-0.49c-0.271,0-0.49,0.219-0.49,0.49v7.855
			c0,0.27,0.219,0.488,0.49,0.488c0.27,0,0.487-0.22,0.487-0.488V29.855z"/>
	</g>
</g>
</svg>
