<?xml version="1.0" encoding="iso-8859-1"?>
<!-- Generator: Adobe Illustrator 15.0.0, SVG Export Plug-In . SVG Version: 6.00 Build 0)  -->
<!DOCTYPE svg PUBLIC "-//W3C//DTD SVG 1.1//EN" "http://www.w3.org/Graphics/SVG/1.1/DTD/svg11.dtd">
<svg version="1.1" id="Layer_1" xmlns="http://www.w3.org/2000/svg" xmlns:xlink="http://www.w3.org/1999/xlink"  
	 viewBox="0 0 43.242 37.891" style="enable-background:new 0 0 43.242 37.891;"
	 xml:space="preserve">
<g id="_x32_9">
	<g>
		<circle style="fill:currentColor;" cx="24.531" cy="36.396" r="1.492"/>
		<circle style="fill:currentColor;" cx="18.907" cy="33.329" r="1.493"/>
		<circle style="fill:currentColor;" cx="30.156" cy="33.329" r="1.492"/>
		<path style="fill:currentColor;" d="M19.398,21.956c0-0.271-0.221-0.489-0.49-0.489c-0.269,0-0.49,0.22-0.49,0.489v7.855
			c0,0.271,0.221,0.489,0.49,0.489c0.269,0,0.49-0.22,0.49-0.489V21.956z"/>
		<circle style="fill:currentColor;" cx="13.284" cy="36.396" r="1.493"/>
		<path style="fill:currentColor;" d="M13.773,21.956c0-0.271-0.217-0.489-0.49-0.489c-0.27,0-0.49,0.22-0.49,0.489V32.88
			c0,0.271,0.221,0.489,0.49,0.489c0.273,0,0.49-0.22,0.49-0.489V21.956z"/>
		<path style="fill:currentColor;" d="M25.021,21.956c0-0.271-0.22-0.489-0.49-0.489s-0.49,0.22-0.49,0.489V32.88
			c0,0.271,0.221,0.489,0.49,0.489c0.271,0,0.49-0.22,0.49-0.489V21.956z"/>
		<path style="fill:currentColor;" d="M30.645,21.956c0-0.271-0.219-0.489-0.487-0.489c-0.271,0-0.49,0.22-0.49,0.489v7.855
			c0,0.271,0.219,0.489,0.49,0.489c0.27,0,0.487-0.22,0.487-0.489V21.956z"/>
	</g>
	<path style="fill:currentColor;" d="M32.375,13.823c1.451-0.588,2.902-0.541,3.318-0.541c2.08,0,4.596,1.821,4.596,4.811
		c0,2.539-2.059,4.598-4.596,4.598h-0.461c-0.777,0-1.406,0.632-1.406,1.409c0,0.774,0.629,1.403,1.406,1.403h0.455
		c4.172,0,7.555-3.381,7.555-7.555c0,0,0.039-7.545-7.904-7.545c-1.717-7.07-8.332-7.428-10.188-6.93C23.139,1.47,19.791,0,16.402,0
		C9.686,0,4.182,5.192,3.686,11.783C1.482,13.052,0,15.429,0,18.153c0,4.06,3.289,7.35,7.346,7.35h1.021
		c0.639,0,1.236-0.688,1.236-1.406c0-0.776-0.629-1.406-1.408-1.406H7.984c-2.746,0-4.771-1.987-4.771-4.558
		c0-2.099,1.334-3.939,3.416-4.567c0.248-9.921,8.965-10.428,9.934-10.428c2.879,0,5.736,1.412,7.572,3.502
		C27.852,5.419,32.945,8.283,32.375,13.823z"/>
</g>
</svg>
