<?xml version="1.0" encoding="iso-8859-1"?>
<!-- Generator: Adobe Illustrator 15.0.0, SVG Export Plug-In . SVG Version: 6.00 Build 0)  -->
<!DOCTYPE svg PUBLIC "-//W3C//DTD SVG 1.1//EN" "http://www.w3.org/Graphics/SVG/1.1/DTD/svg11.dtd">
<svg version="1.1" id="Layer_1" xmlns="http://www.w3.org/2000/svg" xmlns:xlink="http://www.w3.org/1999/xlink"  
	 viewBox="0 0 43.242 34.407" style="enable-background:new 0 0 43.242 34.407;"
	 xml:space="preserve">
<g id="_x32_4">
	<path style="fill:currentColor;" d="M32.375,13.823c1.451-0.588,2.904-0.541,3.318-0.541c2.08,0,4.598,1.821,4.598,4.81
		c0,2.539-2.061,4.598-4.598,4.598h-2.779c-0.777,0-1.408,0.632-1.408,1.409c0,0.774,0.631,1.403,1.408,1.403h2.773
		c4.172,0,7.555-3.381,7.555-7.555c0,0,0.039-7.546-7.902-7.546c-1.719-7.069-8.334-7.428-10.188-6.929
		C23.139,1.47,19.791,0,16.404,0C9.686,0,4.184,5.192,3.688,11.783C1.484,13.052,0,15.429,0,18.153c0,4.061,3.291,7.35,7.348,7.35
		h2.756c0.635,0,1.232-0.688,1.232-1.406c0-0.777-0.631-1.406-1.406-1.406H7.984c-2.746,0-4.77-1.986-4.77-4.557
		c0-2.099,1.332-3.94,3.416-4.569c0.248-9.92,8.963-10.427,9.932-10.427c2.879,0,5.734,1.412,7.572,3.502
		C27.852,5.419,32.945,8.283,32.375,13.823z"/>
	<g>
		<path style="fill:currentColor;" d="M19.527,24.627l-0.947-0.547l0.947-0.547c0.326-0.188,0.438-0.605,0.25-0.932
			c-0.189-0.328-0.607-0.438-0.934-0.252l-0.947,0.548v-1.093c0-0.377-0.305-0.682-0.682-0.682s-0.682,0.305-0.682,0.682v1.093
			l-0.947-0.548c-0.326-0.188-0.744-0.075-0.932,0.252c-0.189,0.324-0.078,0.744,0.248,0.932l0.947,0.547l-0.947,0.545
			c-0.326,0.189-0.438,0.606-0.248,0.935c0.188,0.325,0.605,0.438,0.932,0.25l0.947-0.547v1.094c0,0.377,0.305,0.683,0.682,0.683
			s0.682-0.306,0.682-0.683v-1.094l0.947,0.547c0.326,0.188,0.744,0.075,0.934-0.25C19.965,25.233,19.854,24.816,19.527,24.627z"/>
		<path style="fill:currentColor;" d="M28.002,24.627l-0.947-0.547l0.947-0.547c0.326-0.188,0.438-0.605,0.25-0.932
			c-0.189-0.328-0.607-0.438-0.934-0.252l-0.945,0.548v-1.093c0-0.377-0.305-0.682-0.684-0.682c-0.377,0-0.683,0.305-0.683,0.682
			v1.093l-0.946-0.548c-0.328-0.188-0.742-0.075-0.933,0.252c-0.188,0.324-0.076,0.744,0.25,0.932l0.947,0.547l-0.947,0.545
			c-0.326,0.189-0.438,0.606-0.25,0.935c0.188,0.325,0.604,0.438,0.933,0.25l0.946-0.547v1.094c0,0.377,0.306,0.683,0.683,0.683
			c0.379,0,0.684-0.306,0.684-0.683v-1.094l0.945,0.547c0.326,0.188,0.744,0.075,0.934-0.25
			C28.439,25.233,28.328,24.816,28.002,24.627z"/>
		<path style="fill:currentColor;" d="M23.947,31.997l-0.945-0.547l0.945-0.547c0.328-0.188,0.438-0.605,0.25-0.934
			c-0.188-0.326-0.605-0.438-0.932-0.248l-0.947,0.546v-1.095c0-0.377-0.305-0.682-0.683-0.682c-0.377,0-0.682,0.305-0.682,0.682
			v1.096l-0.947-0.547c-0.326-0.189-0.744-0.077-0.932,0.248c-0.189,0.328-0.078,0.744,0.248,0.934l0.947,0.545l-0.947,0.549
			c-0.326,0.188-0.438,0.604-0.248,0.932c0.188,0.326,0.605,0.438,0.93,0.25l0.949-0.547v1.094c0,0.378,0.305,0.684,0.682,0.684
			c0.377,0,0.683-0.306,0.683-0.684v-1.094l0.947,0.547c0.325,0.188,0.743,0.076,0.932-0.25
			C24.387,32.603,24.275,32.185,23.947,31.997z"/>
	</g>
</g>
</svg>
