<?xml version="1.0" encoding="iso-8859-1"?>
<!-- Generator: Adobe Illustrator 15.0.0, SVG Export Plug-In . SVG Version: 6.00 Build 0)  -->
<!DOCTYPE svg PUBLIC "-//W3C//DTD SVG 1.1//EN" "http://www.w3.org/Graphics/SVG/1.1/DTD/svg11.dtd">
<svg version="1.1" id="Layer_1" xmlns="http://www.w3.org/2000/svg" xmlns:xlink="http://www.w3.org/1999/xlink"  
	 viewBox="0 0 43.223 33.758" style="enable-background:new 0 0 43.223 33.758;"
	 xml:space="preserve">
<g id="_x32_6">
	<g>
		<path style="fill:currentColor;" d="M16.674,23.392c0.412-0.716,0.168-1.628-0.545-2.041c-0.715-0.411-1.629-0.166-2.039,0.548
			l-1.66,2.872c-0.412,0.714-0.168,1.627,0.547,2.04s1.627,0.168,2.041-0.548L16.674,23.392z"/>
		<path style="fill:currentColor;" d="M31.545,23.392c0.412-0.716,0.168-1.628-0.547-2.041c-0.715-0.411-1.627-0.166-2.039,0.548
			l-1.656,2.872c-0.416,0.714-0.17,1.627,0.543,2.04c0.715,0.413,1.629,0.168,2.041-0.548L31.545,23.392z"/>
		<path style="fill:currentColor;" d="M25.424,30.11c0.414-0.714,0.17-1.627-0.545-2.039s-1.629-0.168-2.041,0.547l-1.656,2.871
			c-0.414,0.715-0.168,1.629,0.545,2.04c0.715,0.413,1.629,0.167,2.039-0.546L25.424,30.11z"/>
		<path style="fill:currentColor;" d="M18.709,31.347l-0.945-0.548l0.945-0.545c0.326-0.188,0.438-0.606,0.252-0.934
			c-0.189-0.326-0.607-0.438-0.935-0.25l-0.946,0.547v-1.093c0-0.378-0.306-0.683-0.683-0.683s-0.684,0.305-0.684,0.683v1.093
			l-0.947-0.547c-0.322-0.189-0.742-0.076-0.93,0.25c-0.188,0.326-0.078,0.744,0.25,0.934l0.945,0.545l-0.945,0.548
			c-0.328,0.188-0.438,0.604-0.25,0.933c0.188,0.328,0.606,0.438,0.93,0.249l0.947-0.546v1.094c0,0.377,0.307,0.684,0.684,0.684
			s0.683-0.307,0.683-0.684v-1.095l0.946,0.547c0.326,0.188,0.744,0.078,0.935-0.249C19.148,31.952,19.035,31.536,18.709,31.347z"/>
		<path style="fill:currentColor;" d="M24.615,24.627l-0.947-0.547l0.947-0.547c0.323-0.188,0.438-0.604,0.25-0.933
			c-0.189-0.327-0.605-0.437-0.935-0.251l-0.947,0.548v-1.092c0-0.38-0.305-0.683-0.682-0.683s-0.682,0.303-0.682,0.683v1.092
			l-0.947-0.548c-0.326-0.188-0.742-0.075-0.93,0.251c-0.191,0.327-0.08,0.743,0.248,0.933l0.944,0.547l-0.944,0.547
			c-0.328,0.188-0.439,0.604-0.248,0.933c0.186,0.325,0.604,0.438,0.93,0.25l0.947-0.547v1.094c0,0.377,0.305,0.683,0.682,0.683
			s0.682-0.306,0.682-0.683v-1.094l0.947,0.547c0.328,0.188,0.744,0.075,0.935-0.25C25.053,25.233,24.939,24.816,24.615,24.627z"/>
	</g>
	<path style="fill:currentColor;" d="M32.377,13.823c1.451-0.588,2.901-0.541,3.317-0.541c2.08,0,4.597,1.82,4.597,4.808
		c0,2.541-2.062,4.6-4.597,4.6h-0.213c-0.776,0-1.407,0.631-1.407,1.407s0.631,1.405,1.407,1.405h0.207
		c4.172,0,7.554-3.381,7.554-7.555c0,0,0.039-7.546-7.9-7.546c-1.719-7.069-8.334-7.428-10.189-6.929C23.141,1.47,19.791,0,16.404,0
		C9.688,0,4.184,5.192,3.689,11.783C1.484,13.052,0,15.429,0,18.153c0,4.061,3.291,7.35,7.348,7.35h1.025
		c0.639,0,1.233-0.688,1.233-1.406c0-0.777-0.629-1.406-1.403-1.406h-0.22c-2.743,0-4.77-1.986-4.77-4.559
		c0-2.097,1.334-3.938,3.416-4.567c0.248-9.921,8.965-10.428,9.932-10.428c2.881,0,5.736,1.413,7.572,3.502
		C27.852,5.418,32.945,8.283,32.377,13.823z"/>
</g>
</svg>
