<?xml version="1.0" encoding="iso-8859-1"?>
<!-- Generator: Adobe Illustrator 15.0.0, SVG Export Plug-In . SVG Version: 6.00 Build 0)  -->
<!DOCTYPE svg PUBLIC "-//W3C//DTD SVG 1.1//EN" "http://www.w3.org/Graphics/SVG/1.1/DTD/svg11.dtd">
<svg version="1.1" id="Layer_1" xmlns="http://www.w3.org/2000/svg" xmlns:xlink="http://www.w3.org/1999/xlink"  
	 viewBox="0 0 54.426 46.334" style="enable-background:new 0 0 54.426 46.334;"
	 xml:space="preserve">
<g id="_x32_0">
	<g>
		<path style="fill:currentColor;" d="M38.615,1.489c0-0.823-0.668-1.489-1.49-1.489c-0.824,0-1.492,0.666-1.492,1.489v3.312
			c0,0.825,0.668,1.492,1.492,1.492c0.822,0,1.49-0.667,1.49-1.492V1.489z"/>
		<path style="fill:currentColor;" d="M26.984,5.061c-0.582-0.582-1.525-0.582-2.107,0s-0.582,1.527,0,2.109l2.342,2.341
			c0.582,0.583,1.527,0.583,2.107,0c0.582-0.583,0.582-1.525,0-2.108L26.984,5.061z"/>
		<path style="fill:currentColor;" d="M47.236,29.567c0.582,0.584,1.525,0.584,2.109,0.002c0.581-0.584,0.581-1.527,0-2.108l-2.343-2.342
			c-0.582-0.583-1.524-0.583-2.108,0c-0.582,0.58-0.582,1.524,0,2.106L47.236,29.567z"/>
		<path style="fill:currentColor;" d="M52.936,18.819c0.822,0,1.49-0.667,1.49-1.49c0-0.824-0.668-1.491-1.49-1.491h-3.312
			c-0.822,0-1.49,0.667-1.49,1.491c0,0.823,0.668,1.49,1.49,1.49H52.936z"/>
		<path style="fill:currentColor;" d="M49.363,7.189c0.582-0.582,0.584-1.527,0-2.108c-0.58-0.583-1.525-0.583-2.109,0l-2.34,2.341
			c-0.582,0.583-0.582,1.527,0,2.109c0.582,0.582,1.525,0.582,2.107,0L49.363,7.189z"/>
		<path style="fill:currentColor;" d="M46.393,17.346c0-5.117-4.147-9.268-9.268-9.268c-3.025,0-5.713,1.451-7.404,3.691
			c-1.902-0.675-3.727-0.625-4.57-0.398c-2.012-2.003-5.361-3.474-8.748-3.474c-6.715,0-12.219,5.192-12.715,11.783
			C1.482,20.95,0,23.326,0,26.051c0,4.062,3.289,7.353,7.348,7.353h5.25c0.697,0,1.234-0.691,1.234-1.409
			c0-0.776-0.631-1.405-1.406-1.405H7.982c-2.744,0-4.77-1.986-4.77-4.557c0-2.1,1.334-3.941,3.418-4.57
			c0.246-9.92,8.963-10.426,9.932-10.426c2.877,0,5.734,1.412,7.572,3.501c3.716-1.22,8.81,1.646,8.24,7.185
			c1.451-0.588,2.901-0.541,3.317-0.541c2.08,0,4.597,1.822,4.597,4.811c0,2.539-2.06,4.598-4.597,4.598h-5.188
			c-0.775,0-1.406,0.632-1.406,1.406c0,0.776,0.631,1.407,1.406,1.407h5.182c4.172,0,7.556-3.383,7.556-7.555
			c0,0,0.002-0.572-0.16-1.402C45.107,22.745,46.393,20.197,46.393,17.346z M41.91,21.459c-1.08-1.66-3.033-3.158-6.572-3.158
			c-0.572-2.365-1.697-3.979-3.006-5.061c1.158-1.349,2.875-2.203,4.793-2.203c3.484,0,6.309,2.824,6.309,6.309
			C43.434,18.918,42.859,20.354,41.91,21.459z"/>
	</g>
	<line style="fill:none;" x1="19.053" y1="38.92" x2="19.053" y2="38.92"/>
	<g>
		<path style="fill:currentColor;" d="M21.096,31.192c0.396-0.686,0.162-1.562-0.521-1.957c-0.686-0.394-1.562-0.159-1.957,0.523
			l-5.211,8.768l-2.156,3.73c-0.541,0.943-1.074,1.205-1.918,1.205c-1.164,0-2.107-0.939-2.107-2.104
			c0-1.058,0.783-1.922,1.797-2.073L9.02,39.278c0.746-0.1,1.203-0.95,1.02-1.709c-0.188-0.772-0.969-1.25-1.742-1.061L8.3,36.511
			c-2.244,0.48-3.926,2.471-3.926,4.856c0,2.743,2.223,4.966,4.965,4.966c1.479,0,2.791-0.589,3.701-1.645
			c1.051,1.598,3.178,2.125,4.861,1.158c1.518-0.873,2.172-2.675,1.654-4.279l0.004-0.002c-0.166-0.561-0.754-0.883-1.314-0.719
			c-0.549,0.159-0.926,0.764-0.715,1.272l-0.008,0.004c0.275,0.701,0.01,1.515-0.662,1.901c-0.74,0.424-1.686,0.17-2.111-0.57
			c-0.268-0.469-0.324-0.86-0.068-1.409C17.08,37.926,21.096,31.192,21.096,31.192z"/>
		<path style="fill:currentColor;" d="M23.26,36.146L23.26,36.146c-0.412,0.725-0.377,1.178-0.047,1.734
			c0.451,0.766,1.439,1.02,2.203,0.564c0.695-0.411,0.963-1.262,0.668-1.989l0.006-0.001c-0.227-0.529,0.158-1.163,0.727-1.335
			c0.582-0.179,1.199,0.149,1.376,0.731h-0.002c0.56,1.664-0.098,3.547-1.667,4.476c-1.805,1.069-4.137,0.471-5.203-1.334
			c-0.699-1.183-0.742-2.546-0.082-3.718c0.568-1.006,3.326-5.674,3.326-5.674c0.297-0.524,0.965-0.713,1.492-0.414
			c0.525,0.295,0.713,0.965,0.416,1.489L23.26,36.146z"/>
	</g>
</g>
</svg>
