<?xml version="1.0" encoding="iso-8859-1"?>
<!-- Generator: Adobe Illustrator 15.0.0, SVG Export Plug-In . SVG Version: 6.00 Build 0)  -->
<!DOCTYPE svg PUBLIC "-//W3C//DTD SVG 1.1//EN" "http://www.w3.org/Graphics/SVG/1.1/DTD/svg11.dtd">
<svg version="1.1" id="Layer_1" xmlns="http://www.w3.org/2000/svg" xmlns:xlink="http://www.w3.org/1999/xlink"  
	 viewBox="0 0 43.244 37.891" style="enable-background:new 0 0 43.244 37.891;"
	 xml:space="preserve">
<g id="_x32_8">
	<circle style="fill:currentColor;" cx="24.535" cy="33.329" r="1.494"/>
	<circle style="fill:currentColor;" cx="18.911" cy="36.396" r="1.493"/>
	<path style="fill:currentColor;" d="M19.4,21.956c0-0.271-0.219-0.49-0.49-0.49c-0.27,0-0.49,0.221-0.49,0.49V32.88
		c0,0.271,0.221,0.489,0.49,0.489c0.271,0,0.49-0.22,0.49-0.489V21.956z"/>
	<path style="fill:currentColor;" d="M25.024,21.956c0-0.271-0.219-0.49-0.489-0.49s-0.49,0.221-0.49,0.49v7.855
		c0,0.271,0.22,0.488,0.49,0.488s0.489-0.219,0.489-0.488V21.956z"/>
	<path style="fill:currentColor;" d="M32.377,13.823c1.451-0.588,2.901-0.541,3.317-0.541c2.082,0,4.597,1.821,4.597,4.81
		c0,2.54-2.06,4.599-4.597,4.599h-6.061c-0.777,0-1.406,0.632-1.406,1.409c0,0.774,0.629,1.403,1.406,1.403h6.055
		c4.172,0,7.556-3.381,7.556-7.555c0,0,0.039-7.546-7.904-7.546c-1.715-7.069-8.33-7.427-10.187-6.929
		C23.142,1.47,19.791,0,16.406,0C9.689,0,4.186,5.192,3.691,11.783C1.484,13.052,0,15.429,0,18.153c0,4.06,3.291,7.35,7.352,7.35
		h6.639c0.637,0,1.234-0.688,1.234-1.406c0-0.777-0.631-1.406-1.408-1.406h-5.83c-2.746,0-4.771-1.987-4.771-4.558
		c0-2.099,1.334-3.939,3.418-4.567c0.248-9.921,8.961-10.428,9.932-10.428c2.879,0,5.736,1.411,7.572,3.502
		C27.854,5.419,32.946,8.283,32.377,13.823z"/>
</g>
</svg>
