<?xml version="1.0" encoding="iso-8859-1"?>
<!-- Generator: Adobe Illustrator 15.0.0, SVG Export Plug-In . SVG Version: 6.00 Build 0)  -->
<!DOCTYPE svg PUBLIC "-//W3C//DTD SVG 1.1//EN" "http://www.w3.org/Graphics/SVG/1.1/DTD/svg11.dtd">
<svg version="1.1" id="Layer_1" xmlns="http://www.w3.org/2000/svg" xmlns:xlink="http://www.w3.org/1999/xlink"  
	 viewBox="0 0 50.936 41.904" style="enable-background:new 0 0 50.936 41.904;"
	 xml:space="preserve">
<g id="_x33_6">
	<path style="fill:currentColor;" d="M28.485,11.64c-1.41-0.293-2.657-0.223-3.311-0.047c-2.016-2.006-5.365-3.477-8.756-3.477
		c-6.724,0-12.23,5.197-12.728,11.793C1.486,21.178,0,23.557,0,26.284c0,4.064,3.293,7.355,7.354,7.355h1.027
		c0.693,0,1.236-0.689,1.236-1.408c0-0.777-0.632-1.408-1.406-1.408H7.991c-2.748,0-4.773-1.988-4.773-4.559
		c0-2.102,1.334-3.945,3.418-4.573c0.248-9.93,8.971-10.438,9.939-10.438c2.883,0,5.739,1.414,7.582,3.506
		c3.716-1.223,8.816,1.645,8.246,7.192c1.451-0.591,2.904-0.544,3.32-0.544c2.082,0,4.6,1.824,4.6,4.814
		c0,2.541-2.059,4.602-4.6,4.602h-0.215c-0.779,0-1.408,0.633-1.408,1.41c0,0.775,0.629,1.404,1.408,1.404h0.209
		c4.176,0,7.561-3.385,7.561-7.561c0,0,0.006-0.973-0.355-2.219c2.779-0.525,5.258-2.008,7.07-4.1
		c2.352-2.704-0.33-2.646-1.244-2.788c-5.393-0.664-12.674-6.281-9.998-15.172c0.58-1.908-0.523-1.93-1.33-1.697
		C37.421,0.104,29.009,1.969,28.485,11.64z M35.571,3.944c-1.236,6.406,3.898,14.338,11.078,15.093
		c-1.379,1.053-3.209,1.885-5.082,2.122c-1.141-1.438-3.039-2.633-6.197-2.633c-0.719-2.953-2.289-4.736-4.014-5.775
		C30.923,7.765,34.028,4.89,35.571,3.944z"/>
	<g>
		<path style="fill:currentColor;" d="M16.689,31.53c0.412-0.715,0.168-1.631-0.547-2.043c-0.715-0.41-1.629-0.166-2.043,0.549
			l-1.658,2.875c-0.414,0.715-0.168,1.627,0.547,2.041c0.716,0.412,1.63,0.168,2.041-0.549L16.689,31.53z"/>
		<path style="fill:currentColor;" d="M31.569,31.53c0.416-0.715,0.168-1.631-0.547-2.043c-0.713-0.41-1.629-0.166-2.039,0.549
			l-1.658,2.875c-0.414,0.715-0.168,1.627,0.547,2.041c0.715,0.412,1.629,0.168,2.041-0.549L31.569,31.53z"/>
		<path style="fill:currentColor;" d="M25.445,38.254c0.414-0.715,0.171-1.629-0.547-2.041c-0.713-0.414-1.627-0.168-2.041,0.547
			l-1.657,2.875c-0.414,0.713-0.168,1.627,0.545,2.041c0.717,0.412,1.631,0.166,2.041-0.547L25.445,38.254z"/>
		<path style="fill:currentColor;" d="M18.726,39.491l-0.947-0.547l0.947-0.547c0.324-0.189,0.439-0.605,0.25-0.936
			c-0.188-0.326-0.604-0.438-0.936-0.25l-0.945,0.547v-1.094c0-0.377-0.305-0.682-0.684-0.682c-0.377,0-0.685,0.305-0.685,0.682
			v1.094l-0.947-0.547c-0.323-0.188-0.743-0.076-0.932,0.25c-0.188,0.328-0.078,0.746,0.248,0.936l0.947,0.547l-0.947,0.547
			c-0.326,0.188-0.438,0.605-0.248,0.934c0.188,0.328,0.607,0.439,0.932,0.25l0.947-0.547v1.094c0,0.377,0.308,0.684,0.685,0.684
			c0.379,0,0.684-0.307,0.684-0.684v-1.094l0.945,0.547c0.33,0.189,0.746,0.078,0.936-0.25S19.05,39.678,18.726,39.491z"/>
		<path style="fill:currentColor;" d="M24.634,32.766l-0.947-0.549l0.947-0.547c0.328-0.188,0.439-0.604,0.25-0.934
			c-0.188-0.328-0.605-0.438-0.932-0.25l-0.947,0.547V29.94c0-0.377-0.307-0.684-0.685-0.684c-0.377,0-0.682,0.307-0.682,0.684
			v1.094l-0.949-0.547c-0.326-0.189-0.742-0.076-0.932,0.25c-0.189,0.328-0.078,0.744,0.25,0.934l0.945,0.547l-0.945,0.549
			c-0.328,0.188-0.439,0.604-0.25,0.934c0.188,0.326,0.604,0.438,0.932,0.25l0.949-0.547v1.094c0,0.377,0.305,0.684,0.682,0.684
			c0.378,0,0.685-0.307,0.685-0.684v-1.094l0.947,0.547c0.325,0.188,0.743,0.076,0.932-0.25
			C25.074,33.374,24.962,32.956,24.634,32.766z"/>
	</g>
</g>
</svg>
