<?xml version="1.0" encoding="iso-8859-1"?>
<!-- Generator: Adobe Illustrator 15.0.0, SVG Export Plug-In . SVG Version: 6.00 Build 0)  -->
<!DOCTYPE svg PUBLIC "-//W3C//DTD SVG 1.1//EN" "http://www.w3.org/Graphics/SVG/1.1/DTD/svg11.dtd">
<svg version="1.1" id="Layer_1" xmlns="http://www.w3.org/2000/svg" xmlns:xlink="http://www.w3.org/1999/xlink"  
	 viewBox="0 0 50.938 46.035" style="enable-background:new 0 0 50.938 46.035;"
	 xml:space="preserve">
<g id="_x33_8">
	<g>
		<circle style="fill:currentColor;" cx="24.556" cy="41.468" r="1.495"/>
		<circle style="fill:currentColor;" cx="18.927" cy="44.54" r="1.493"/>
		<path style="fill:currentColor;" d="M19.418,30.087c0-0.271-0.222-0.49-0.49-0.49c-0.271,0-0.49,0.219-0.49,0.49v10.932
			c0,0.271,0.22,0.49,0.49,0.49s0.49-0.219,0.49-0.49V30.087z"/>
		<path style="fill:currentColor;" d="M25.045,30.087c0-0.271-0.219-0.49-0.49-0.49c-0.27,0-0.49,0.219-0.49,0.49v7.863
			c0,0.27,0.222,0.488,0.49,0.488c0.271,0,0.49-0.221,0.49-0.488V30.087z"/>
	</g>
	<path style="fill:currentColor;" d="M28.486,11.636c-1.411-0.292-2.655-0.224-3.311-0.048c-2.016-2.003-5.367-3.476-8.756-3.476
		c-6.724,0-12.23,5.197-12.728,11.793C1.486,21.176,0,23.554,0,26.281c0,4.062,3.295,7.354,7.354,7.354h6.636
		c0.694,0,1.237-0.688,1.237-1.406c0-0.777-0.633-1.407-1.41-1.407H7.992c-2.746,0-4.773-1.989-4.773-4.562
		c0-2.102,1.336-3.944,3.418-4.571c0.248-9.93,8.971-10.438,9.941-10.438c2.883,0,5.739,1.413,7.58,3.506
		c3.719-1.223,8.815,1.645,8.248,7.19c1.448-0.589,2.903-0.542,3.317-0.542c2.084,0,4.601,1.822,4.601,4.814
		c0,2.541-2.06,4.602-4.601,4.602H29.66c-0.777,0-1.408,0.631-1.408,1.408s0.631,1.406,1.408,1.406h6.059
		c4.176,0,7.562-3.383,7.562-7.561c0,0,0.004-0.974-0.357-2.22c2.781-0.525,5.26-2.009,7.072-4.1
		c2.352-2.701-0.334-2.645-1.246-2.788c-5.392-0.663-12.676-6.28-9.996-15.171c0.58-1.908-0.525-1.929-1.332-1.697
		C37.422,0.101,29.012,1.966,28.486,11.636z M35.572,3.94c-1.235,6.408,3.9,14.338,11.08,15.093
		c-1.379,1.052-3.211,1.885-5.086,2.122c-1.139-1.438-3.037-2.631-6.194-2.631c-0.72-2.956-2.291-4.739-4.015-5.777
		C30.924,7.761,34.029,4.886,35.572,3.94z"/>
</g>
</svg>
