<?xml version="1.0" encoding="iso-8859-1"?>
<!-- Generator: Adobe Illustrator 15.0.0, SVG Export Plug-In . SVG Version: 6.00 Build 0)  -->
<!DOCTYPE svg PUBLIC "-//W3C//DTD SVG 1.1//EN" "http://www.w3.org/Graphics/SVG/1.1/DTD/svg11.dtd">
<svg version="1.1" id="Layer_1" xmlns="http://www.w3.org/2000/svg" xmlns:xlink="http://www.w3.org/1999/xlink"  
	 viewBox="0 0 50.936 46.035" style="enable-background:new 0 0 50.936 46.035;"
	 xml:space="preserve">
<g id="_x33_9">
	<path style="fill:currentColor;" d="M28.484,11.639c-1.412-0.295-2.658-0.227-3.312-0.051c-2.014-2.002-5.364-3.475-8.754-3.475
		c-6.723,0-12.231,5.197-12.729,11.793C1.484,21.176,0,23.555,0,26.281c0,4.064,3.293,7.354,7.354,7.354h1.022
		c0.693,0,1.238-0.688,1.238-1.407c0-0.777-0.633-1.406-1.41-1.406H7.99c-2.746,0-4.773-1.988-4.773-4.562
		c0-2.102,1.334-3.945,3.418-4.572c0.25-9.93,8.974-10.438,9.939-10.438c2.883,0,5.74,1.414,7.582,3.506
		c3.719-1.223,8.816,1.646,8.246,7.189c1.451-0.588,2.906-0.541,3.32-0.541c2.084,0,4.6,1.822,4.6,4.814
		c0,2.541-2.059,4.602-4.6,4.602h-0.459c-0.777,0-1.408,0.632-1.408,1.408c0,0.777,0.631,1.406,1.408,1.406h0.452
		c4.177,0,7.562-3.383,7.562-7.561c0,0,0.004-0.973-0.357-2.219c2.779-0.525,5.261-2.008,7.07-4.101
		c2.354-2.701-0.332-2.645-1.244-2.789c-5.391-0.662-12.674-6.279-9.996-15.17c0.58-1.908-0.524-1.93-1.332-1.697
		C37.42,0.102,29.01,1.967,28.484,11.639z M35.57,3.941c-1.236,6.408,3.9,14.338,11.078,15.092
		c-1.379,1.053-3.209,1.885-5.084,2.123c-1.14-1.438-3.035-2.631-6.195-2.631c-0.717-2.957-2.291-4.74-4.014-5.777
		C30.924,7.762,34.027,4.887,35.57,3.941z"/>
	<g>
		<circle style="fill:currentColor;" cx="24.553" cy="44.541" r="1.494"/>
		<circle style="fill:currentColor;" cx="18.925" cy="41.469" r="1.495"/>
		<path style="fill:currentColor;" d="M31.678,41.469c0,0.828-0.671,1.496-1.498,1.496c-0.824,0-1.492-0.668-1.492-1.496
			c0-0.824,0.668-1.494,1.492-1.494C31.008,39.975,31.678,40.645,31.678,41.469z"/>
		<path style="fill:currentColor;" d="M19.414,30.088c0-0.271-0.219-0.49-0.49-0.49c-0.27,0-0.489,0.219-0.489,0.49v7.863
			c0,0.27,0.221,0.488,0.489,0.488c0.271,0,0.49-0.219,0.49-0.488V30.088z"/>
		<circle style="fill:currentColor;" cx="13.297" cy="44.541" r="1.494"/>
		<path style="fill:currentColor;" d="M13.785,30.088c0-0.271-0.219-0.49-0.49-0.49c-0.27,0-0.489,0.219-0.489,0.49v10.934
			c0,0.271,0.221,0.488,0.489,0.488c0.271,0,0.49-0.219,0.49-0.488V30.088z"/>
		<path style="fill:currentColor;" d="M25.045,30.088c0-0.271-0.223-0.49-0.491-0.49c-0.27,0-0.49,0.219-0.49,0.49v10.934
			c0,0.271,0.221,0.488,0.49,0.488c0.269,0,0.491-0.219,0.491-0.488V30.088z"/>
		<path style="fill:currentColor;" d="M30.672,30.088c0-0.271-0.221-0.49-0.491-0.49s-0.488,0.219-0.488,0.49v7.863
			c0,0.27,0.219,0.488,0.488,0.488c0.271,0,0.491-0.219,0.491-0.488V30.088z"/>
	</g>
</g>
</svg>
