<?xml version="1.0" encoding="iso-8859-1"?>
<!-- Generator: Adobe Illustrator 15.0.0, SVG Export Plug-In . SVG Version: 6.00 Build 0)  -->
<!DOCTYPE svg PUBLIC "-//W3C//DTD SVG 1.1//EN" "http://www.w3.org/Graphics/SVG/1.1/DTD/svg11.dtd">
<svg version="1.1" id="Layer_1" xmlns="http://www.w3.org/2000/svg" xmlns:xlink="http://www.w3.org/1999/xlink"  
	 viewBox="0 0 43.244 38.406" style="enable-background:new 0 0 43.244 38.406;"
	 xml:space="preserve">
<g id="_x33_0">
	<line style="fill:none;" x1="19.055" y1="30.991" x2="19.055" y2="30.991"/>
	<g>
		<path style="fill:currentColor;" d="M21.1,23.266c0.395-0.687,0.162-1.562-0.523-1.955c-0.686-0.395-1.561-0.16-1.955,0.522
			L13.409,30.6l-2.154,3.731c-0.543,0.942-1.076,1.205-1.92,1.205c-1.164,0-2.105-0.94-2.105-2.104c0-1.056,0.781-1.922,1.795-2.072
			l-0.002-0.01c0.744-0.096,1.203-0.949,1.02-1.707c-0.188-0.772-0.967-1.248-1.742-1.061v0.002
			c-2.242,0.479-3.924,2.469-3.924,4.855c0,2.742,2.223,4.965,4.965,4.965c1.479,0,2.791-0.586,3.701-1.644
			c1.051,1.599,3.178,2.125,4.861,1.159c1.52-0.874,2.172-2.675,1.656-4.279l0.002-0.002c-0.164-0.561-0.752-0.884-1.314-0.72
			c-0.549,0.16-0.926,0.765-0.715,1.274l-0.008,0.002c0.277,0.701,0.01,1.517-0.662,1.902c-0.738,0.424-1.686,0.17-2.111-0.572
			c-0.268-0.467-0.324-0.858-0.068-1.405C17.082,29.999,21.1,23.266,21.1,23.266z"/>
		<path style="fill:currentColor;" d="M23.263,28.218L23.263,28.218c-0.412,0.724-0.378,1.179-0.046,1.734
			c0.451,0.766,1.438,1.021,2.203,0.565c0.692-0.412,0.961-1.262,0.666-1.988l0.006-0.002c-0.227-0.528,0.156-1.162,0.729-1.336
			c0.582-0.178,1.197,0.15,1.375,0.732h-0.002c0.559,1.662-0.098,3.549-1.668,4.475c-1.808,1.069-4.137,0.472-5.201-1.336
			c-0.701-1.181-0.744-2.543-0.082-3.715c0.568-1.006,3.324-5.672,3.324-5.672c0.297-0.525,0.967-0.714,1.494-0.418
			c0.524,0.299,0.709,0.967,0.414,1.492L23.263,28.218z"/>
	</g>
	<path style="fill:currentColor;" d="M32.377,13.794c1.451-0.588,2.901-0.541,3.317-0.541c2.08,0,4.597,1.821,4.597,4.811
		c0,2.54-2.06,4.597-4.597,4.597h-5.188c-0.777,0-1.406,0.632-1.406,1.409c0,0.775,0.629,1.404,1.406,1.404h5.182
		c4.172,0,7.556-3.382,7.556-7.556c0,0,0.037-7.545-7.904-7.545c-1.717-7.07-8.33-7.428-10.188-6.93
		c-2.01-2.004-5.36-3.474-8.745-3.474c-6.717,0-12.221,5.192-12.717,11.783C1.486,13.022,0,15.399,0,18.124
		c0,4.06,3.291,7.351,7.35,7.351h5.248c0.639,0,1.236-0.688,1.236-1.408c0-0.775-0.631-1.405-1.408-1.405h-4.44
		c-2.746,0-4.77-1.987-4.77-4.557c0-2.099,1.33-3.94,3.414-4.568c0.25-9.921,8.965-10.428,9.934-10.428
		c2.879,0,5.736,1.413,7.574,3.503C27.854,5.39,32.946,8.254,32.377,13.794z"/>
</g>
</svg>
