<?xml version="1.0" encoding="iso-8859-1"?>
<!-- Generator: Adobe Illustrator 15.0.0, SVG Export Plug-In . SVG Version: 6.00 Build 0)  -->
<!DOCTYPE svg PUBLIC "-//W3C//DTD SVG 1.1//EN" "http://www.w3.org/Graphics/SVG/1.1/DTD/svg11.dtd">
<svg version="1.1" id="Layer_1" xmlns="http://www.w3.org/2000/svg" xmlns:xlink="http://www.w3.org/1999/xlink"  
	 viewBox="0 0 50.938 50.693" style="enable-background:new 0 0 50.938 50.693;"
	 xml:space="preserve">
<g id="_x33_3">
	<path style="fill:currentColor;" d="M28.486,11.635c-1.412-0.293-2.658-0.224-3.312-0.048c-2.016-2.003-5.366-3.477-8.756-3.477
		c-6.723,0-12.229,5.198-12.727,11.794C1.488,21.176,0,23.554,0,26.281c0,4.062,3.295,7.354,7.357,7.354h0.99
		c0.692,0,1.235-0.688,1.235-1.407c0-0.777-0.631-1.408-1.408-1.408H7.994c-2.748,0-4.772-1.988-4.772-4.561
		c0-2.101,1.332-3.943,3.418-4.572c0.248-9.929,8.969-10.438,9.938-10.438c2.881,0,5.74,1.414,7.58,3.507
		c3.719-1.223,8.816,1.646,8.248,7.19c1.451-0.589,2.902-0.542,3.318-0.542c2.084,0,4.6,1.822,4.6,4.813
		c0,2.541-2.059,4.601-4.6,4.601h-0.203c-0.777,0-1.408,0.633-1.408,1.41c0,0.776,0.631,1.405,1.408,1.405h0.196
		c4.177,0,7.562-3.385,7.562-7.561c0,0,0.004-0.973-0.355-2.219c2.779-0.525,5.259-2.009,7.068-4.102
		c2.354-2.702-0.33-2.644-1.242-2.787c-5.393-0.662-12.676-6.279-9.998-15.171c0.58-1.907-0.522-1.929-1.332-1.696
		C37.422,0.101,29.012,1.966,28.486,11.635z M35.572,3.94c-1.236,6.406,3.9,14.337,11.08,15.092
		c-1.381,1.053-3.211,1.885-5.084,2.123c-1.142-1.438-3.039-2.633-6.197-2.633c-0.717-2.954-2.291-4.737-4.014-5.775
		C30.926,7.76,34.029,4.885,35.572,3.94z"/>
	<g>
		<path style="fill:currentColor;" d="M16.814,31.505c0.412-0.713,0.166-1.628-0.549-2.039c-0.714-0.414-1.627-0.17-2.039,0.547
			L8.033,40.31c-0.412,0.715-0.168,1.627,0.547,2.041c0.715,0.412,1.629,0.168,2.041-0.547L16.814,31.505z"/>
		<path style="fill:currentColor;" d="M23.854,31.505c0.412-0.713,0.168-1.628-0.549-2.039c-0.716-0.414-1.63-0.17-2.041,0.547
			L10.576,48.452c-0.412,0.715-0.168,1.629,0.547,2.04c0.715,0.414,1.627,0.168,2.041-0.546L23.854,31.505z"/>
		<path style="fill:currentColor;" d="M30.893,31.505c0.412-0.713,0.168-1.628-0.547-2.039c-0.716-0.414-1.632-0.17-2.043,0.547
			l-6.191,10.656c-0.414,0.715-0.168,1.629,0.547,2.041c0.713,0.412,1.627,0.168,2.041-0.547L30.893,31.505z"/>
	</g>
</g>
</svg>
