<?xml version="1.0" encoding="iso-8859-1"?>
<!-- Generator: Adobe Illustrator 15.0.0, SVG Export Plug-In . SVG Version: 6.00 Build 0)  -->
<!DOCTYPE svg PUBLIC "-//W3C//DTD SVG 1.1//EN" "http://www.w3.org/Graphics/SVG/1.1/DTD/svg11.dtd">
<svg version="1.1" id="Layer_1" xmlns="http://www.w3.org/2000/svg" xmlns:xlink="http://www.w3.org/1999/xlink"  
	 viewBox="0 0 36.279 36.281" style="enable-background:new 0 0 36.279 36.281;"
	 xml:space="preserve">
<g id="_x34_6">
	<g>
		<path style="fill:currentColor;" d="M16.758,7.246V3.759h0.684l1.428,2.328V3.759h0.654v3.487h-0.707L17.41,4.972v2.274H16.758z"/>
	</g>
	<g>
		<path style="fill:currentColor;" d="M16.769,31.229l0.662-0.063c0.041,0.222,0.121,0.385,0.242,0.487
			c0.123,0.105,0.287,0.157,0.494,0.157c0.219,0,0.385-0.046,0.494-0.139c0.113-0.093,0.166-0.201,0.166-0.325
			c0-0.08-0.021-0.147-0.068-0.203c-0.045-0.057-0.127-0.104-0.244-0.146c-0.082-0.029-0.264-0.076-0.545-0.146
			c-0.365-0.091-0.621-0.202-0.768-0.334c-0.207-0.186-0.312-0.412-0.312-0.678c0-0.173,0.051-0.332,0.146-0.481
			c0.1-0.149,0.238-0.265,0.422-0.341c0.182-0.078,0.402-0.118,0.662-0.118c0.424,0,0.742,0.092,0.955,0.278
			c0.215,0.184,0.326,0.433,0.338,0.742l-0.682,0.029c-0.027-0.172-0.092-0.298-0.186-0.372c-0.098-0.075-0.24-0.114-0.434-0.114
			c-0.197,0-0.352,0.04-0.463,0.121c-0.072,0.053-0.109,0.123-0.109,0.209c0,0.08,0.033,0.148,0.104,0.205
			c0.084,0.071,0.293,0.147,0.625,0.227c0.33,0.078,0.576,0.157,0.734,0.24c0.158,0.084,0.281,0.199,0.371,0.345
			c0.09,0.144,0.135,0.323,0.135,0.536c0,0.193-0.055,0.373-0.16,0.543c-0.107,0.168-0.26,0.293-0.455,0.374
			c-0.197,0.081-0.439,0.124-0.732,0.124c-0.428,0-0.754-0.099-0.982-0.296C16.951,31.894,16.816,31.605,16.769,31.229z"/>
	</g>
	<g>
		<path style="fill:currentColor;" d="M4.658,19.815l-0.832-3.486h0.719l0.527,2.394l0.637-2.394h0.838l0.611,2.434l0.535-2.434h0.711
			l-0.848,3.486H6.808l-0.693-2.606l-0.693,2.606H4.658z"/>
	</g>
	<g>
		<path style="fill:currentColor;" d="M29.801,19.815v-3.486h2.588v0.59h-1.883v0.772h1.75v0.589h-1.75v0.948h1.947v0.587H29.801z"/>
	</g>
	<path style="fill:currentColor;" d="M11.353,17.033c-0.463,0.119-0.805,0.54-0.805,1.04c0,0.506,0.352,0.93,0.82,1.042l15.508,4.148
		l-2.547-5.19l2.547-5.19L11.353,17.033z M11.674,18.073c0-0.329,0.223-0.288,2.357-0.838c2.35-0.608,10.732-2.73,10.732-2.73
		l-1.75,3.568H11.674z"/>
	<path style="fill:currentColor;" d="M18.14-0.068C8.121-0.068,0,8.054,0,18.073c0,10.017,8.121,18.14,18.141,18.14
		s18.139-8.123,18.139-18.14C36.279,8.054,28.16-0.068,18.14-0.068z M29.465,28.484L28.4,27.419c-0.252-0.252-0.66-0.252-0.914,0
		c-0.252,0.251-0.25,0.661,0,0.914l1.066,1.064c-2.742,2.521-6.396,4.061-10.412,4.061c-4.018,0-7.672-1.54-10.414-4.061
		l1.066-1.067c0.252-0.25,0.254-0.659,0-0.911c-0.25-0.254-0.662-0.252-0.912,0l-1.064,1.065c-2.521-2.74-4.062-6.397-4.062-10.411
		c0-4.017,1.541-7.673,4.062-10.414l1.064,1.066c0.25,0.252,0.662,0.252,0.912,0c0.254-0.25,0.252-0.661,0-0.914L7.726,6.747
		c2.742-2.521,6.398-4.062,10.414-4.062s7.67,1.541,10.412,4.062l-1.064,1.066c-0.252,0.251-0.252,0.66-0.002,0.912
		c0.252,0.252,0.662,0.251,0.914-0.001l1.064-1.064c2.521,2.74,4.061,6.396,4.061,10.413C33.525,22.087,31.984,25.744,29.465,28.484
		z"/>
</g>
</svg>
