<?xml version="1.0" encoding="iso-8859-1"?>
<!-- Generator: Adobe Illustrator 15.0.0, SVG Export Plug-In . SVG Version: 6.00 Build 0)  -->
<!DOCTYPE svg PUBLIC "-//W3C//DTD SVG 1.1//EN" "http://www.w3.org/Graphics/SVG/1.1/DTD/svg11.dtd">
<svg version="1.1" id="Layer_1" xmlns="http://www.w3.org/2000/svg" xmlns:xlink="http://www.w3.org/1999/xlink"  
	 viewBox="0 0 36.279 36.281" style="enable-background:new 0 0 36.279 36.281;"
	 xml:space="preserve">
<g id="_x34_9">
	<g>
		<path style="fill:currentColor;" d="M16.757,7.315V3.828h0.686l1.426,2.328V3.828h0.654v3.487h-0.707l-1.406-2.274v2.274H16.757z"/>
	</g>
	<g>
		<path style="fill:currentColor;" d="M16.768,31.299l0.664-0.064c0.039,0.223,0.119,0.385,0.24,0.488
			c0.123,0.105,0.289,0.156,0.494,0.156c0.219,0,0.385-0.045,0.496-0.139c0.111-0.092,0.166-0.201,0.166-0.324
			c0-0.08-0.023-0.148-0.07-0.203c-0.047-0.057-0.127-0.105-0.244-0.146c-0.08-0.029-0.262-0.076-0.543-0.146
			c-0.365-0.092-0.623-0.203-0.77-0.334c-0.207-0.186-0.311-0.412-0.311-0.678c0-0.174,0.049-0.332,0.146-0.482
			c0.098-0.148,0.236-0.264,0.42-0.34c0.182-0.078,0.404-0.119,0.662-0.119c0.424,0,0.742,0.092,0.955,0.279
			c0.215,0.184,0.328,0.432,0.338,0.742l-0.68,0.029c-0.029-0.172-0.092-0.299-0.188-0.373s-0.24-0.113-0.432-0.113
			c-0.197,0-0.354,0.039-0.463,0.121c-0.072,0.053-0.109,0.123-0.109,0.209c0,0.08,0.033,0.148,0.1,0.205
			c0.088,0.07,0.297,0.146,0.627,0.227c0.33,0.078,0.574,0.156,0.734,0.24s0.283,0.199,0.373,0.344s0.135,0.324,0.135,0.537
			c0,0.193-0.055,0.373-0.162,0.543c-0.107,0.168-0.26,0.293-0.455,0.373c-0.197,0.082-0.441,0.125-0.732,0.125
			c-0.428,0-0.754-0.1-0.98-0.297C16.95,31.963,16.815,31.674,16.768,31.299z"/>
	</g>
	<g>
		<path style="fill:currentColor;" d="M4.657,19.885l-0.83-3.487h0.719l0.527,2.393l0.637-2.393h0.836l0.613,2.434l0.533-2.434h0.709
			l-0.846,3.487H6.807l-0.693-2.607l-0.691,2.607H4.657z"/>
	</g>
	<g>
		<path style="fill:currentColor;" d="M29.8,19.885v-3.487h2.586v0.59h-1.879v0.772h1.748v0.589h-1.748v0.948h1.947v0.588H29.8z"/>
	</g>
	<path style="fill:currentColor;" d="M10.108,24.664c-0.244,0.41-0.188,0.949,0.166,1.305c0.357,0.357,0.904,0.408,1.318,0.156
		l13.896-8.032l-5.471-1.871l-1.869-5.469L10.108,24.664z M11.069,25.17c-0.232-0.23-0.045-0.357,1.074-2.258
		c1.232-2.09,5.658-9.518,5.658-9.518l1.285,3.76L11.069,25.17z"/>
	<path style="fill:currentColor;" d="M18.139,0C8.122,0-0.001,8.123-0.001,18.142c0,10.016,8.123,18.139,18.141,18.139
		c10.02,0,18.141-8.123,18.141-18.139C36.28,8.123,28.159,0,18.139,0z M29.464,28.553l-1.064-1.064c-0.252-0.252-0.66-0.252-0.912,0
		c-0.254,0.25-0.252,0.66,0,0.914l1.064,1.064c-2.74,2.52-6.396,4.061-10.412,4.061c-4.018,0-7.674-1.541-10.412-4.061l1.064-1.068
		c0.252-0.25,0.252-0.658,0-0.91c-0.252-0.254-0.66-0.252-0.912,0l-1.064,1.064c-2.521-2.74-4.062-6.396-4.062-10.411
		c0-4.017,1.541-7.673,4.062-10.414L7.88,8.794c0.252,0.252,0.66,0.252,0.914,0c0.252-0.25,0.25-0.661-0.002-0.914L7.727,6.816
		c2.74-2.521,6.396-4.062,10.412-4.062c4.018,0,7.672,1.541,10.412,4.062l-1.064,1.066c-0.252,0.251-0.252,0.66,0,0.912
		c0.25,0.252,0.66,0.251,0.912-0.001l1.064-1.064c2.521,2.74,4.061,6.396,4.061,10.413C33.524,22.156,31.985,25.812,29.464,28.553z"
		/>
</g>
</svg>
