<?xml version="1.0" encoding="iso-8859-1"?>
<!-- Generator: Adobe Illustrator 15.0.0, SVG Export Plug-In . SVG Version: 6.00 Build 0)  -->
<!DOCTYPE svg PUBLIC "-//W3C//DTD SVG 1.1//EN" "http://www.w3.org/Graphics/SVG/1.1/DTD/svg11.dtd">
<svg version="1.1" id="Layer_1" xmlns="http://www.w3.org/2000/svg" xmlns:xlink="http://www.w3.org/1999/xlink"  
	 viewBox="0 0 36.279 36.281" style="enable-background:new 0 0 36.279 36.281;"
	 xml:space="preserve">
<g id="_x34_3">
	<g>
		<path style="fill:currentColor;" d="M16.757,7.314V3.827h0.686l1.427,2.328V3.827h0.653v3.487h-0.706L17.41,5.04v2.274H16.757z"/>
	</g>
	<g>
		<path style="fill:currentColor;" d="M16.77,31.298l0.663-0.063c0.039,0.222,0.119,0.385,0.241,0.487
			c0.122,0.105,0.287,0.157,0.493,0.157c0.22,0,0.385-0.046,0.496-0.139c0.111-0.093,0.166-0.201,0.166-0.325
			c0-0.08-0.021-0.147-0.07-0.203c-0.045-0.057-0.125-0.104-0.244-0.146c-0.079-0.029-0.263-0.076-0.546-0.146
			c-0.363-0.091-0.619-0.202-0.768-0.334c-0.205-0.186-0.31-0.412-0.31-0.678c0-0.173,0.05-0.332,0.146-0.481
			c0.098-0.149,0.238-0.265,0.421-0.341c0.184-0.078,0.404-0.118,0.662-0.118c0.425,0,0.742,0.092,0.956,0.278
			c0.215,0.184,0.326,0.433,0.338,0.742l-0.681,0.029c-0.029-0.172-0.092-0.298-0.187-0.372c-0.095-0.075-0.24-0.114-0.432-0.114
			c-0.197,0-0.353,0.04-0.462,0.121c-0.074,0.053-0.111,0.123-0.111,0.209c0,0.08,0.035,0.148,0.102,0.205
			c0.088,0.071,0.296,0.147,0.626,0.227c0.331,0.078,0.576,0.157,0.735,0.24c0.16,0.084,0.281,0.199,0.371,0.345
			c0.09,0.144,0.135,0.323,0.135,0.536c0,0.193-0.053,0.373-0.16,0.543c-0.107,0.168-0.258,0.293-0.454,0.374
			c-0.199,0.081-0.442,0.124-0.734,0.124c-0.427,0-0.754-0.099-0.982-0.296C16.951,31.962,16.815,31.674,16.77,31.298z"/>
	</g>
	<g>
		<path style="fill:currentColor;" d="M4.658,19.884l-0.832-3.486h0.72l0.526,2.394l0.638-2.394h0.837l0.611,2.434l0.535-2.434h0.709
			l-0.846,3.486H6.809l-0.694-2.606l-0.691,2.606H4.658z"/>
	</g>
	<g>
		<path style="fill:currentColor;" d="M29.801,19.884v-3.486h2.586v0.59h-1.881v0.772h1.75v0.589h-1.75v0.948h1.947v0.587H29.801z"/>
	</g>
	<path style="fill:currentColor;" d="M19.336,10.265c-0.119-0.463-0.538-0.805-1.04-0.805c-0.505,0-0.93,0.35-1.044,0.82l-4.146,15.506
		l5.191-2.545l5.189,2.545L19.336,10.265z M18.297,10.585c0.327,0,0.285,0.223,0.837,2.357c0.607,2.348,2.729,10.731,2.729,10.731
		l-3.566-1.75V10.585z"/>
	<path style="fill:currentColor;" d="M18.139,0C8.121,0,0,8.122,0,18.142c0,10.017,8.121,18.14,18.139,18.14
		c10.021,0,18.14-8.123,18.14-18.14C36.279,8.122,28.16,0,18.139,0z M29.465,28.553L28.4,27.487c-0.254-0.252-0.662-0.252-0.914,0
		c-0.252,0.251-0.25,0.661,0.002,0.914l1.064,1.064c-2.74,2.521-6.396,4.061-10.414,4.061c-4.017,0-7.672-1.54-10.412-4.061
		l1.067-1.067c0.251-0.25,0.251-0.659,0-0.911c-0.253-0.254-0.663-0.252-0.914,0l-1.065,1.065c-2.521-2.74-4.062-6.397-4.062-10.411
		c0-4.017,1.541-7.673,4.062-10.414l1.066,1.066c0.25,0.252,0.66,0.252,0.913,0c0.252-0.25,0.251-0.661-0.001-0.914L7.727,6.815
		c2.74-2.521,6.397-4.062,10.412-4.062c4.017,0,7.673,1.541,10.414,4.062l-1.064,1.066c-0.252,0.251-0.252,0.66-0.002,0.912
		c0.252,0.252,0.66,0.251,0.914-0.001l1.064-1.064c2.521,2.74,4.062,6.396,4.062,10.413C33.527,22.155,31.984,25.812,29.465,28.553z
		"/>
</g>
</svg>
