<?xml version="1.0" encoding="iso-8859-1"?>
<!-- Generator: Adobe Illustrator 15.0.0, SVG Export Plug-In . SVG Version: 6.00 Build 0)  -->
<!DOCTYPE svg PUBLIC "-//W3C//DTD SVG 1.1//EN" "http://www.w3.org/Graphics/SVG/1.1/DTD/svg11.dtd">
<svg version="1.1" id="Layer_1" xmlns="http://www.w3.org/2000/svg" xmlns:xlink="http://www.w3.org/1999/xlink"  
	 viewBox="0 0 14.967 40.324" style="enable-background:new 0 0 14.967 40.324;"
	 xml:space="preserve">
<path id="_x35_1" style="fill:currentColor;" d="M11.978,26.869L11.976,4.496C11.976,2.014,9.962,0,7.482,0C5,0,2.989,2.014,2.989,4.496
	v22.371C1.178,28.234,0,30.397,0,32.841c0,4.134,3.349,7.483,7.483,7.483c4.132,0,7.482-3.35,7.482-7.483
	C14.966,30.397,13.788,28.234,11.978,26.869z M7.484,37.58c-2.618,0-4.739-2.121-4.739-4.738c0-1.992,1.231-3.695,2.972-4.396V4.637
	c0-0.977,0.79-1.768,1.766-1.768c0.975,0,1.766,0.791,1.766,1.768v1.861h-1.41c-0.346,0-0.626,0.279-0.626,0.624
	c0,0.344,0.281,0.624,0.626,0.625h1.41v3.588h-1.41c-0.346,0-0.626,0.28-0.626,0.624s0.281,0.625,0.626,0.625h1.41v2.983h-1.41
	c-0.346,0-0.626,0.28-0.626,0.625c0,0.343,0.281,0.623,0.626,0.624h1.41v2.984h-1.41c-0.346,0-0.626,0.279-0.626,0.625
	c0,0.343,0.281,0.623,0.626,0.624h1.41v2.983h-1.41c-0.346,0-0.626,0.279-0.626,0.625c0,0.344,0.281,0.623,0.626,0.625h1.41v3.163
	c1.742,0.7,2.973,2.403,2.973,4.396C12.222,35.459,10.101,37.58,7.484,37.58z"/>
</svg>
