<?xml version="1.0" encoding="iso-8859-1"?>
<!-- Generator: Adobe Illustrator 15.0.0, SVG Export Plug-In . SVG Version: 6.00 Build 0)  -->
<!DOCTYPE svg PUBLIC "-//W3C//DTD SVG 1.1//EN" "http://www.w3.org/Graphics/SVG/1.1/DTD/svg11.dtd">
<svg version="1.1" id="Layer_1" xmlns="http://www.w3.org/2000/svg" xmlns:xlink="http://www.w3.org/1999/xlink"  
	 viewBox="0 0 36.279 36.281" style="enable-background:new 0 0 36.279 36.281;"
	 xml:space="preserve">
<g id="_x34_4">
	<g>
		<path style="fill:currentColor;" d="M16.757,7.314V3.827h0.684l1.427,2.328V3.827h0.655v3.487h-0.708L17.409,5.04v2.274H16.757z"/>
	</g>
	<g>
		<path style="fill:currentColor;" d="M16.769,31.299l0.664-0.064c0.038,0.223,0.12,0.385,0.241,0.488
			c0.122,0.105,0.286,0.156,0.493,0.156c0.218,0,0.384-0.045,0.496-0.139c0.111-0.092,0.166-0.201,0.166-0.324
			c0-0.08-0.023-0.148-0.07-0.203c-0.045-0.057-0.127-0.105-0.244-0.146c-0.08-0.029-0.264-0.076-0.547-0.146
			c-0.363-0.092-0.62-0.203-0.767-0.334c-0.207-0.186-0.31-0.412-0.31-0.678c0-0.174,0.05-0.332,0.146-0.482
			c0.097-0.148,0.238-0.264,0.42-0.34c0.184-0.078,0.405-0.119,0.663-0.119c0.424,0,0.742,0.092,0.956,0.279
			c0.215,0.184,0.326,0.432,0.336,0.742l-0.679,0.029c-0.029-0.172-0.092-0.299-0.188-0.373c-0.095-0.074-0.239-0.113-0.432-0.113
			c-0.197,0-0.353,0.039-0.463,0.121c-0.073,0.053-0.109,0.123-0.109,0.209c0,0.08,0.034,0.148,0.101,0.205
			c0.088,0.07,0.296,0.146,0.626,0.227c0.33,0.078,0.577,0.156,0.736,0.24c0.158,0.084,0.281,0.199,0.373,0.344
			c0.088,0.145,0.133,0.324,0.133,0.537c0,0.193-0.055,0.373-0.16,0.543c-0.107,0.168-0.26,0.293-0.456,0.373
			c-0.197,0.082-0.441,0.125-0.733,0.125c-0.426,0-0.754-0.1-0.982-0.297C16.949,31.963,16.814,31.674,16.769,31.299z"/>
	</g>
	<g>
		<path style="fill:currentColor;" d="M4.657,19.885l-0.832-3.487h0.721l0.526,2.394l0.637-2.394h0.837l0.611,2.435l0.536-2.435h0.709
			l-0.847,3.487H6.808l-0.693-2.608l-0.692,2.608H4.657z"/>
	</g>
	<g>
		<path style="fill:currentColor;" d="M29.801,19.885v-3.487h2.586v0.59h-1.881v0.771h1.75v0.59h-1.75v0.948h1.947v0.588H29.801z"/>
	</g>
	<path style="fill:currentColor;" d="M26.847,19.18c0.465-0.117,0.807-0.537,0.807-1.04c0-0.504-0.35-0.93-0.82-1.041L11.327,12.95
		l2.544,5.19l-2.544,5.192L26.847,19.18z M26.529,18.14c0,0.328-0.223,0.287-2.357,0.838c-2.35,0.609-10.732,2.73-10.732,2.73
		l1.75-3.569H26.529z"/>
	<path style="fill:currentColor;" d="M18.14,0C8.12,0,0,8.122,0,18.142c0,10.016,8.12,18.139,18.14,18.139
		c10.018,0,18.139-8.123,18.139-18.139C36.279,8.122,28.158,0,18.14,0z M29.463,28.553l-1.064-1.064
		c-0.252-0.252-0.66-0.252-0.912,0c-0.252,0.25-0.25,0.66,0,0.914l1.066,1.064c-2.74,2.52-6.396,4.061-10.413,4.061
		c-4.018,0-7.673-1.541-10.413-4.061l1.064-1.068c0.253-0.25,0.253-0.658,0.001-0.91c-0.251-0.254-0.66-0.252-0.913,0l-1.064,1.064
		c-2.521-2.74-4.062-6.396-4.062-10.411c0-4.017,1.541-7.673,4.062-10.415L7.88,8.794c0.252,0.252,0.661,0.252,0.912,0
		c0.253-0.25,0.252-0.661-0.001-0.914L7.727,6.815c2.74-2.521,6.396-4.062,10.413-4.062c4.016,0,7.672,1.541,10.413,4.062
		l-1.066,1.066c-0.25,0.251-0.25,0.66,0,0.912s0.66,0.251,0.914-0.001l1.062-1.064c2.523,2.74,4.062,6.396,4.062,10.414
		C33.525,22.156,31.986,25.812,29.463,28.553z"/>
</g>
</svg>
