<?xml version="1.0" encoding="iso-8859-1"?>
<!-- Generator: Adobe Illustrator 15.0.0, SVG Export Plug-In . SVG Version: 6.00 Build 0)  -->
<!DOCTYPE svg PUBLIC "-//W3C//DTD SVG 1.1//EN" "http://www.w3.org/Graphics/SVG/1.1/DTD/svg11.dtd">
<svg version="1.1" id="Layer_1" xmlns="http://www.w3.org/2000/svg" xmlns:xlink="http://www.w3.org/1999/xlink"  
	 viewBox="0 0 36.279 36.281" style="enable-background:new 0 0 36.279 36.281;"
	 xml:space="preserve">
<g id="_x34_8">
	<g>
		<path style="fill:currentColor;" d="M16.757,7.246V3.759h0.684l1.428,2.328V3.759h0.654v3.487h-0.707l-1.404-2.274v2.274H16.757z"/>
	</g>
	<g>
		<path style="fill:currentColor;" d="M16.768,31.229l0.662-0.063c0.041,0.222,0.121,0.385,0.244,0.487
			c0.121,0.105,0.285,0.157,0.492,0.157c0.219,0,0.385-0.046,0.496-0.139s0.166-0.201,0.166-0.325c0-0.08-0.025-0.147-0.07-0.203
			c-0.047-0.057-0.127-0.104-0.244-0.146c-0.08-0.029-0.262-0.076-0.545-0.146c-0.365-0.091-0.621-0.202-0.768-0.334
			c-0.207-0.186-0.311-0.412-0.311-0.678c0-0.173,0.049-0.332,0.145-0.481c0.098-0.149,0.24-0.265,0.422-0.341
			c0.184-0.078,0.404-0.118,0.662-0.118c0.424,0,0.742,0.092,0.955,0.278c0.215,0.184,0.328,0.433,0.338,0.742l-0.68,0.029
			c-0.029-0.172-0.094-0.298-0.189-0.372c-0.096-0.075-0.238-0.114-0.43-0.114c-0.197,0-0.352,0.04-0.463,0.121
			c-0.074,0.053-0.109,0.123-0.109,0.209c0,0.08,0.033,0.148,0.102,0.205c0.086,0.071,0.295,0.147,0.625,0.227
			c0.33,0.078,0.576,0.157,0.734,0.24c0.158,0.084,0.279,0.199,0.371,0.345c0.09,0.144,0.135,0.323,0.135,0.536
			c0,0.193-0.053,0.373-0.158,0.543c-0.109,0.168-0.262,0.293-0.457,0.374c-0.197,0.081-0.441,0.124-0.732,0.124
			c-0.428,0-0.754-0.099-0.982-0.296C16.95,31.894,16.813,31.605,16.768,31.229z"/>
	</g>
	<g>
		<path style="fill:currentColor;" d="M4.659,19.815l-0.834-3.486h0.721l0.527,2.394l0.637-2.394h0.836l0.611,2.434l0.537-2.434h0.707
			l-0.846,3.486H6.809l-0.697-2.606l-0.689,2.606H4.659z"/>
	</g>
	<g>
		<path style="fill:currentColor;" d="M29.8,19.815v-3.486h2.586v0.59h-1.881v0.772h1.75v0.589h-1.75v0.948h1.947v0.587H29.8z"/>
	</g>
	<path style="fill:currentColor;" d="M24.682,26.022c0.41,0.244,0.951,0.188,1.305-0.166c0.357-0.357,0.41-0.904,0.156-1.318
		l-8.031-13.896l-1.871,5.469l-5.471,1.871L24.682,26.022z M25.19,25.06c-0.232,0.233-0.359,0.047-2.258-1.073
		c-2.092-1.229-9.521-5.658-9.521-5.658l3.762-1.284L25.19,25.06z"/>
	<path style="fill:currentColor;" d="M18.139-0.068c-10.02,0-18.141,8.122-18.141,18.142c0,10.017,8.121,18.14,18.141,18.14
		S36.28,28.09,36.28,18.073C36.28,8.054,28.159-0.068,18.139-0.068z M29.464,28.484l-1.066-1.065c-0.25-0.252-0.658-0.252-0.912,0
		c-0.252,0.251-0.25,0.661,0.002,0.914l1.064,1.064c-2.74,2.521-6.396,4.061-10.412,4.061s-7.672-1.54-10.412-4.061l1.064-1.067
		c0.25-0.25,0.252-0.659,0-0.911c-0.252-0.254-0.66-0.252-0.912,0l-1.064,1.065c-2.521-2.74-4.062-6.397-4.062-10.411
		c0-4.017,1.541-7.673,4.062-10.414L7.88,8.726c0.252,0.252,0.66,0.252,0.912,0c0.252-0.25,0.25-0.661,0-0.914L7.727,6.747
		c2.74-2.521,6.396-4.062,10.412-4.062s7.672,1.541,10.412,4.062l-1.064,1.066c-0.252,0.251-0.252,0.66-0.002,0.912
		c0.252,0.252,0.662,0.251,0.914-0.001l1.064-1.064c2.521,2.74,4.062,6.396,4.062,10.413C33.526,22.087,31.985,25.744,29.464,28.484
		z"/>
</g>
</svg>
