<?xml version="1.0" encoding="iso-8859-1"?>
<!-- Generator: Adobe Illustrator 15.0.0, SVG Export Plug-In . SVG Version: 6.00 Build 0)  -->
<!DOCTYPE svg PUBLIC "-//W3C//DTD SVG 1.1//EN" "http://www.w3.org/Graphics/SVG/1.1/DTD/svg11.dtd">
<svg version="1.1" id="Layer_1" xmlns="http://www.w3.org/2000/svg" xmlns:xlink="http://www.w3.org/1999/xlink"  
	 viewBox="0 0 36.277 36.281" style="enable-background:new 0 0 36.277 36.281;"
	 xml:space="preserve">
<g id="_x35_0">
	<g>
		<path style="fill:currentColor;" d="M16.756,7.314V3.827h0.687l1.426,2.328V3.827h0.654v3.487h-0.705L17.41,5.04v2.274H16.756z"/>
	</g>
	<g>
		<path style="fill:currentColor;" d="M16.768,31.298l0.662-0.063c0.041,0.223,0.12,0.386,0.243,0.488
			c0.121,0.104,0.287,0.156,0.492,0.156c0.219,0,0.385-0.046,0.496-0.139c0.111-0.094,0.166-0.201,0.166-0.325
			c0-0.08-0.022-0.147-0.07-0.203c-0.047-0.058-0.127-0.104-0.243-0.146c-0.08-0.029-0.263-0.076-0.546-0.146
			c-0.364-0.091-0.62-0.202-0.77-0.334c-0.205-0.186-0.309-0.412-0.309-0.678c0-0.174,0.049-0.332,0.146-0.481
			s0.238-0.265,0.422-0.341c0.183-0.078,0.402-0.118,0.66-0.118c0.424,0,0.744,0.093,0.957,0.278
			c0.213,0.184,0.324,0.434,0.336,0.742l-0.68,0.029c-0.029-0.172-0.094-0.299-0.188-0.373c-0.096-0.074-0.239-0.113-0.432-0.113
			c-0.197,0-0.353,0.039-0.465,0.121c-0.07,0.053-0.107,0.123-0.107,0.209c0,0.08,0.035,0.147,0.101,0.205
			c0.088,0.07,0.297,0.146,0.627,0.227c0.332,0.078,0.575,0.157,0.733,0.24c0.158,0.084,0.281,0.199,0.373,0.345
			c0.088,0.144,0.135,0.323,0.135,0.536c0,0.193-0.055,0.373-0.159,0.543c-0.109,0.168-0.263,0.293-0.457,0.374
			c-0.197,0.081-0.439,0.124-0.732,0.124c-0.428,0-0.754-0.1-0.979-0.296C16.949,31.962,16.814,31.674,16.768,31.298z"/>
	</g>
	<g>
		<path style="fill:currentColor;" d="M4.658,19.884l-0.834-3.486h0.721l0.527,2.394l0.637-2.394h0.836l0.613,2.434l0.535-2.434H8.4
			l-0.844,3.486H6.809l-0.695-2.606l-0.691,2.606H4.658z"/>
	</g>
	<g>
		<path style="fill:currentColor;" d="M29.799,19.884v-3.486h2.586v0.59h-1.881v0.772h1.75v0.589h-1.75v0.948h1.947v0.587H29.799z"/>
	</g>
	<path style="fill:currentColor;" d="M11.627,10.18c-0.41-0.243-0.948-0.189-1.305,0.165c-0.357,0.357-0.408,0.904-0.154,1.318
		l8.029,13.897l1.871-5.471l5.471-1.871L11.627,10.18z M11.119,11.142c0.232-0.234,0.359-0.046,2.26,1.072
		c2.093,1.232,9.519,5.658,9.519,5.658l-3.76,1.287L11.119,11.142z"/>
	<path style="fill:currentColor;" d="M18.139,0C8.121,0,0,8.122,0,18.142c0,10.017,8.121,18.14,18.14,18.14
		c10.02,0,18.139-8.123,18.139-18.14C36.277,8.122,28.158,0,18.139,0z M29.465,28.553l-1.065-1.064c-0.252-0.252-0.66-0.252-0.912,0
		c-0.254,0.251-0.252,0.66,0.002,0.914l1.062,1.063c-2.739,2.521-6.396,4.062-10.411,4.062c-4.017,0-7.673-1.541-10.412-4.062
		l1.065-1.067c0.25-0.25,0.25-0.658,0-0.91c-0.254-0.254-0.662-0.252-0.914,0l-1.065,1.064c-2.521-2.74-4.062-6.396-4.062-10.411
		c0-4.017,1.541-7.673,4.062-10.414l1.067,1.066c0.25,0.252,0.658,0.252,0.912,0c0.252-0.25,0.25-0.661,0-0.914L7.727,6.815
		c2.739-2.521,6.396-4.062,10.412-4.062c4.018,0,7.672,1.541,10.411,4.062l-1.062,1.066c-0.254,0.251-0.254,0.66-0.002,0.912
		c0.25,0.252,0.66,0.251,0.912-0.001l1.065-1.064c2.521,2.74,4.062,6.396,4.062,10.413C33.525,22.154,31.984,25.812,29.465,28.553z"
		/>
</g>
</svg>
