<?xml version="1.0" encoding="iso-8859-1"?>
<!-- Generator: Adobe Illustrator 15.0.0, SVG Export Plug-In . SVG Version: 6.00 Build 0)  -->
<!DOCTYPE svg PUBLIC "-//W3C//DTD SVG 1.1//EN" "http://www.w3.org/Graphics/SVG/1.1/DTD/svg11.dtd">
<svg version="1.1" id="Layer_1" xmlns="http://www.w3.org/2000/svg" xmlns:xlink="http://www.w3.org/1999/xlink"  
	 viewBox="0 0 36.279 36.281" style="enable-background:new 0 0 36.279 36.281;"
	 xml:space="preserve">
<g id="_x34_7">
	<g>
		<path style="fill:currentColor;" d="M16.756,7.246V3.759h0.686l1.426,2.328V3.759h0.656v3.487h-0.707l-1.409-2.274v2.274H16.756z"/>
	</g>
	<g>
		<path style="fill:currentColor;" d="M16.77,31.229l0.662-0.063c0.039,0.222,0.119,0.385,0.242,0.487
			c0.121,0.105,0.287,0.157,0.492,0.157c0.221,0,0.385-0.046,0.497-0.139c0.111-0.093,0.166-0.201,0.166-0.325
			c0-0.08-0.023-0.147-0.07-0.203c-0.045-0.057-0.127-0.104-0.245-0.146c-0.08-0.029-0.262-0.076-0.545-0.146
			c-0.363-0.091-0.619-0.202-0.768-0.334c-0.205-0.186-0.311-0.412-0.311-0.678c0-0.173,0.049-0.332,0.146-0.481
			s0.238-0.265,0.42-0.341c0.184-0.078,0.406-0.118,0.662-0.118c0.424,0,0.743,0.092,0.958,0.278
			c0.213,0.184,0.324,0.433,0.336,0.742l-0.68,0.029c-0.029-0.172-0.092-0.298-0.188-0.372c-0.096-0.075-0.238-0.114-0.432-0.114
			c-0.197,0-0.352,0.04-0.463,0.121c-0.072,0.053-0.109,0.123-0.109,0.209c0,0.08,0.035,0.148,0.102,0.205
			c0.086,0.071,0.295,0.147,0.625,0.227c0.332,0.078,0.577,0.157,0.735,0.24c0.16,0.084,0.283,0.199,0.373,0.345
			c0.088,0.144,0.135,0.323,0.135,0.536c0,0.193-0.055,0.373-0.16,0.543c-0.109,0.168-0.26,0.293-0.457,0.374
			s-0.44,0.124-0.733,0.124c-0.426,0-0.754-0.099-0.98-0.296C16.951,31.894,16.815,31.605,16.77,31.229z"/>
	</g>
	<g>
		<path style="fill:currentColor;" d="M4.658,19.815l-0.832-3.486h0.719l0.527,2.394l0.637-2.394h0.836l0.613,2.434l0.535-2.434h0.709
			l-0.846,3.486h-0.75l-0.693-2.606l-0.691,2.606H4.658z"/>
	</g>
	<g>
		<path style="fill:currentColor;" d="M29.8,19.815v-3.486h2.586v0.59h-1.881v0.772h1.752v0.589h-1.752v0.948h1.947v0.587H29.8z"/>
	</g>
	<path style="fill:currentColor;" d="M26.112,11.522c0.242-0.411,0.188-0.951-0.166-1.305c-0.357-0.357-0.904-0.41-1.318-0.158
		l-13.899,8.033l5.473,1.871l1.869,5.469L26.112,11.522z M25.151,11.015c0.232,0.23,0.043,0.359-1.076,2.258
		c-1.23,2.091-5.657,9.52-5.657,9.52l-1.285-3.76L25.151,11.015z"/>
	<path style="fill:currentColor;" d="M18.139-0.068c-10.018,0-18.141,8.122-18.141,18.142c0,10.017,8.123,18.14,18.141,18.14
		c10.018,0,18.141-8.123,18.141-18.14C36.28,8.054,28.157-0.068,18.139-0.068z M29.464,28.484l-1.064-1.065
		c-0.252-0.252-0.66-0.252-0.914,0c-0.25,0.251-0.25,0.661,0,0.914l1.066,1.064c-2.738,2.521-6.395,4.061-10.413,4.061
		c-4.016,0-7.672-1.54-10.412-4.061l1.066-1.067c0.25-0.25,0.25-0.659,0-0.911c-0.252-0.254-0.662-0.252-0.914,0l-1.064,1.065
		c-2.521-2.74-4.061-6.397-4.061-10.411c0-4.017,1.539-7.673,4.061-10.414l1.064,1.066c0.252,0.252,0.662,0.252,0.914,0
		c0.252-0.25,0.25-0.661,0-0.914L7.727,6.747c2.74-2.521,6.396-4.062,10.412-4.062c4.018,0,7.674,1.541,10.413,4.062l-1.064,1.066
		c-0.252,0.251-0.252,0.66-0.002,0.912c0.254,0.252,0.662,0.251,0.914-0.001l1.064-1.064c2.521,2.74,4.062,6.396,4.062,10.413
		C33.526,22.087,31.985,25.744,29.464,28.484z"/>
</g>
</svg>
