<?xml version="1.0" encoding="iso-8859-1"?>
<!-- Generator: Adobe Illustrator 15.0.0, SVG Export Plug-In . SVG Version: 6.00 Build 0)  -->
<!DOCTYPE svg PUBLIC "-//W3C//DTD SVG 1.1//EN" "http://www.w3.org/Graphics/SVG/1.1/DTD/svg11.dtd">
<svg version="1.1" id="Layer_1" xmlns="http://www.w3.org/2000/svg" xmlns:xlink="http://www.w3.org/1999/xlink"  
	 viewBox="0 0 50.938 46.58" style="enable-background:new 0 0 50.938 46.58;"
	 xml:space="preserve">
<g id="_x34_0">
	<path style="fill:currentColor;" d="M28.486,11.637c-1.412-0.294-2.658-0.224-3.312-0.048c-2.016-2.004-5.364-3.477-8.756-3.477
		c-6.723,0-12.229,5.197-12.727,11.793C1.486,21.176,0,23.554,0,26.281c0,4.062,3.293,7.354,7.355,7.354h5.262
		c0.693,0,1.234-0.688,1.234-1.407c0-0.777-0.631-1.408-1.406-1.408H7.992c-2.748,0-4.773-1.987-4.773-4.56
		c0-2.102,1.335-3.945,3.419-4.572c0.247-9.93,8.973-10.438,9.94-10.438c2.881,0,5.738,1.414,7.578,3.506
		c3.719-1.222,8.818,1.646,8.248,7.191c1.451-0.589,2.904-0.543,3.32-0.543c2.084,0,4.6,1.822,4.6,4.814c0,2.541-2.061,4.6-4.6,4.6
		h-5.191c-0.777,0-1.408,0.634-1.408,1.41c0,0.777,0.631,1.406,1.408,1.406h5.186c4.177,0,7.562-3.384,7.562-7.561
		c0,0,0.006-0.973-0.355-2.219c2.779-0.525,5.259-2.008,7.07-4.101c2.354-2.702-0.332-2.645-1.242-2.787
		c-5.393-0.664-12.676-6.281-10-15.172c0.58-1.908-0.522-1.929-1.33-1.697C37.422,0.101,29.012,1.966,28.486,11.637z M35.572,3.94
		c-1.238,6.407,3.898,14.338,11.078,15.092c-1.379,1.053-3.209,1.885-5.084,2.123c-1.142-1.438-3.037-2.632-6.197-2.632
		c-0.715-2.954-2.289-4.737-4.012-5.776C30.924,7.761,34.029,4.886,35.572,3.94z"/>
	<line style="fill:none;" x1="19.07" y1="39.159" x2="19.07" y2="39.159"/>
	<g>
		<path style="fill:currentColor;" d="M21.117,31.427c0.396-0.687,0.16-1.562-0.525-1.957c-0.684-0.395-1.561-0.16-1.957,0.523
			l-5.215,8.773l-2.157,3.734c-0.541,0.943-1.076,1.206-1.923,1.206c-1.164,0-2.106-0.94-2.106-2.104
			c0-1.058,0.785-1.924,1.799-2.074l-0.003-0.008c0.744-0.099,1.203-0.953,1.02-1.711c-0.188-0.772-0.969-1.25-1.741-1.062v0.003
			c-2.244,0.48-3.931,2.473-3.931,4.859c0,2.746,2.226,4.97,4.972,4.97c1.479,0,2.793-0.588,3.702-1.646
			c1.054,1.601,3.183,2.127,4.865,1.159c1.521-0.872,2.174-2.676,1.656-4.282l0.006-0.002c-0.166-0.562-0.754-0.884-1.315-0.72
			c-0.55,0.158-0.927,0.765-0.716,1.272l-0.008,0.006c0.275,0.699,0.01,1.516-0.664,1.902c-0.74,0.424-1.686,0.17-2.112-0.571
			c-0.269-0.468-0.324-0.861-0.068-1.408C17.098,38.166,21.117,31.427,21.117,31.427z"/>
		<path style="fill:currentColor;" d="M23.281,36.384L23.281,36.384c-0.412,0.725-0.377,1.178-0.047,1.735
			c0.453,0.767,1.438,1.021,2.205,0.565c0.696-0.412,0.963-1.263,0.666-1.99l0.006-0.002c-0.226-0.528,0.16-1.164,0.729-1.338
			c0.582-0.176,1.199,0.151,1.377,0.735h-0.002c0.56,1.664-0.098,3.55-1.67,4.478c-1.809,1.072-4.139,0.473-5.207-1.336
			c-0.7-1.183-0.743-2.545-0.08-3.719c0.568-1.007,3.326-5.678,3.326-5.678c0.297-0.525,0.967-0.714,1.494-0.417
			s0.713,0.967,0.418,1.492L23.281,36.384z"/>
	</g>
</g>
</svg>
