<?xml version="1.0" encoding="iso-8859-1"?>
<!-- Generator: Adobe Illustrator 15.0.0, SVG Export Plug-In . SVG Version: 6.00 Build 0)  -->
<!DOCTYPE svg PUBLIC "-//W3C//DTD SVG 1.1//EN" "http://www.w3.org/Graphics/SVG/1.1/DTD/svg11.dtd">
<svg version="1.1" id="Layer_1" xmlns="http://www.w3.org/2000/svg" xmlns:xlink="http://www.w3.org/1999/xlink"  
	 viewBox="0 0 36.279 36.281" style="enable-background:new 0 0 36.279 36.281;"
	 xml:space="preserve">
<g id="_x34_5">
	<g>
		<path style="fill:currentColor;" d="M16.757,7.314V3.827h0.684l1.427,2.328V3.827h0.653v3.487h-0.706L17.41,5.04v2.274H16.757z"/>
	</g>
	<g>
		<path style="fill:currentColor;" d="M16.769,31.298l0.661-0.063c0.041,0.222,0.122,0.385,0.244,0.487
			c0.12,0.105,0.286,0.157,0.492,0.157c0.22,0,0.385-0.046,0.495-0.139c0.113-0.093,0.168-0.201,0.168-0.325
			c0-0.08-0.025-0.147-0.072-0.203c-0.045-0.057-0.125-0.104-0.244-0.146c-0.078-0.029-0.261-0.076-0.545-0.146
			c-0.362-0.091-0.62-0.202-0.766-0.334c-0.208-0.186-0.311-0.412-0.311-0.678c0-0.173,0.048-0.332,0.144-0.481
			c0.1-0.149,0.24-0.265,0.422-0.341c0.183-0.078,0.404-0.118,0.663-0.118c0.423,0,0.742,0.092,0.954,0.278
			c0.215,0.184,0.328,0.433,0.34,0.742l-0.683,0.029c-0.027-0.172-0.09-0.298-0.187-0.372c-0.096-0.075-0.238-0.114-0.431-0.114
			c-0.197,0-0.352,0.04-0.464,0.121c-0.073,0.053-0.108,0.123-0.108,0.209c0,0.08,0.034,0.148,0.101,0.205
			c0.087,0.071,0.295,0.147,0.627,0.227c0.329,0.078,0.574,0.157,0.733,0.24c0.158,0.084,0.281,0.199,0.371,0.345
			c0.09,0.144,0.135,0.323,0.135,0.536c0,0.193-0.053,0.373-0.158,0.543c-0.109,0.168-0.26,0.293-0.456,0.374
			c-0.197,0.081-0.442,0.124-0.734,0.124c-0.426,0-0.752-0.099-0.98-0.296C16.948,31.962,16.814,31.674,16.769,31.298z"/>
	</g>
	<g>
		<path style="fill:currentColor;" d="M4.658,19.884l-0.834-3.486h0.721l0.526,2.394l0.638-2.394h0.837l0.612,2.434l0.534-2.434h0.708
			l-0.846,3.486H6.808l-0.695-2.606l-0.691,2.606H4.658z"/>
	</g>
	<g>
		<path style="fill:currentColor;" d="M29.801,19.884v-3.486h2.586v0.59h-1.881v0.772h1.748v0.589h-1.748v0.948h1.947v0.587H29.801z"/>
	</g>
	<path style="fill:currentColor;" d="M17.099,26.017c0.118,0.462,0.54,0.805,1.04,0.805c0.506,0,0.929-0.35,1.044-0.82l4.146-15.506
		l-5.193,2.545l-5.188-2.545L17.099,26.017z M18.137,25.695c-0.327,0-0.285-0.224-0.836-2.356c-0.608-2.349-2.73-10.73-2.73-10.73
		l3.566,1.749V25.695z"/>
	<path style="fill:currentColor;" d="M18.137,0C8.12,0-0.001,8.122-0.001,18.142c0,10.017,8.121,18.14,18.138,18.14
		c10.023,0,18.142-8.123,18.142-18.14C36.279,8.122,28.16,0,18.137,0z M29.463,28.553l-1.064-1.065c-0.252-0.252-0.66-0.252-0.912,0
		c-0.254,0.251-0.252,0.661,0,0.914l1.064,1.064c-2.74,2.521-6.396,4.061-10.414,4.061c-4.014,0-7.671-1.54-10.41-4.061l1.065-1.067
		c0.251-0.25,0.251-0.659,0-0.911c-0.251-0.254-0.662-0.252-0.913,0l-1.064,1.065c-2.521-2.74-4.062-6.397-4.062-10.411
		c0-4.017,1.541-7.673,4.062-10.414l1.066,1.066c0.249,0.252,0.66,0.252,0.911,0c0.251-0.25,0.251-0.661,0-0.914L7.727,6.815
		c2.74-2.521,6.396-4.062,10.41-4.062c4.019,0,7.673,1.541,10.414,4.062l-1.064,1.066c-0.252,0.251-0.252,0.66,0,0.912
		c0.25,0.252,0.66,0.251,0.912-0.001l1.064-1.064c2.521,2.74,4.062,6.396,4.062,10.413C33.525,22.155,31.984,25.812,29.463,28.553z"
		/>
</g>
</svg>
