<?xml version="1.0" encoding="iso-8859-1"?>
<!-- Generator: Adobe Illustrator 15.0.0, SVG Export Plug-In . SVG Version: 6.00 Build 0)  -->
<!DOCTYPE svg PUBLIC "-//W3C//DTD SVG 1.1//EN" "http://www.w3.org/Graphics/SVG/1.1/DTD/svg11.dtd">
<svg version="1.1" id="Layer_1" xmlns="http://www.w3.org/2000/svg" xmlns:xlink="http://www.w3.org/1999/xlink"  
	 viewBox="0 0 14.997 40.324" style="enable-background:new 0 0 14.997 40.324;"
	 xml:space="preserve">
<g id="_x35_5">
	<path style="fill:currentColor;" d="M12.01,26.869L12.008,4.496C12.008,2.014,9.995,0,7.513,0c-2.48,0-4.492,2.014-4.492,4.496v22.371
		c-1.811,1.367-2.986,3.529-2.986,5.974c0,4.134,3.348,7.483,7.48,7.483c4.132,0,7.481-3.35,7.481-7.483
		C14.997,30.396,13.821,28.234,12.01,26.869z M7.517,37.58c-2.617,0-4.74-2.121-4.74-4.738c0-1.992,1.23-3.695,2.973-4.396V4.637
		c0-0.977,0.791-1.768,1.764-1.768c0.977,0,1.77,0.791,1.77,1.768v23.81c1.74,0.699,2.971,2.402,2.971,4.396
		C12.252,35.459,10.133,37.58,7.517,37.58z"/>
	<path style="fill:currentColor;" d="M8.282,29.715V4.764c0-0.424-0.344-0.768-0.768-0.768c-0.422,0-0.766,0.344-0.766,0.768v24.951
		c-1.41,0.346-2.463,1.608-2.463,3.126c0,1.783,1.447,3.229,3.23,3.229c1.782,0,3.228-1.445,3.228-3.229
		C10.743,31.323,9.692,30.061,8.282,29.715z"/>
</g>
</svg>
