<?xml version="1.0" encoding="iso-8859-1"?>
<!-- Generator: Adobe Illustrator 15.0.0, SVG Export Plug-In . SVG Version: 6.00 Build 0)  -->
<!DOCTYPE svg PUBLIC "-//W3C//DTD SVG 1.1//EN" "http://www.w3.org/Graphics/SVG/1.1/DTD/svg11.dtd">
<svg version="1.1" id="Layer_1" xmlns="http://www.w3.org/2000/svg" xmlns:xlink="http://www.w3.org/1999/xlink"  
	 viewBox="0 0 14.967 40.324" style="enable-background:new 0 0 14.967 40.324;"
	 xml:space="preserve">
<g id="_x35_2">
	<path style="fill:currentColor;" d="M11.978,26.869L11.976,4.496C11.976,2.014,9.964,0,7.481,0C4.997,0,2.987,2.014,2.987,4.496v22.371
		c-1.812,1.367-2.986,3.53-2.986,5.974c0,4.134,3.35,7.483,7.482,7.483c4.131,0,7.482-3.35,7.482-7.483
		C14.966,30.397,13.788,28.234,11.978,26.869z M7.483,37.58c-2.617,0-4.74-2.121-4.74-4.738c0-1.992,1.23-3.695,2.973-4.396V4.637
		c0-0.977,0.791-1.768,1.766-1.768c0.977,0,1.768,0.791,1.768,1.768v1.861h-1.41c-0.346,0-0.627,0.279-0.627,0.624
		c0,0.344,0.281,0.624,0.627,0.625h1.41v3.588h-1.41c-0.346,0-0.627,0.28-0.627,0.624s0.281,0.625,0.627,0.625h1.41v2.983h-1.41
		c-0.346,0-0.627,0.28-0.627,0.625c0,0.343,0.281,0.623,0.627,0.624h1.41v2.984h-1.41c-0.346,0-0.627,0.279-0.627,0.625
		c0,0.343,0.281,0.623,0.627,0.624h1.41v2.983h-1.41c-0.346,0-0.627,0.279-0.627,0.625c0,0.344,0.281,0.623,0.627,0.625h1.41v3.163
		c1.742,0.7,2.971,2.403,2.971,4.396C12.22,35.459,10.101,37.58,7.483,37.58z"/>
	<path style="fill:currentColor;" d="M4.255,32.841c0,1.783,1.445,3.229,3.229,3.229s3.227-1.445,3.227-3.229H4.255z"/>
</g>
</svg>
