<?xml version="1.0" encoding="iso-8859-1"?>
<!-- Generator: Adobe Illustrator 15.0.0, SVG Export Plug-In . SVG Version: 6.00 Build 0)  -->
<!DOCTYPE svg PUBLIC "-//W3C//DTD SVG 1.1//EN" "http://www.w3.org/Graphics/SVG/1.1/DTD/svg11.dtd">
<svg version="1.1" id="Layer_1" xmlns="http://www.w3.org/2000/svg" xmlns:xlink="http://www.w3.org/1999/xlink"  
	 viewBox="0 0 41.002 22.555" style="enable-background:new 0 0 41.002 22.555;"
	 xml:space="preserve">
<g id="_x35_9">
	<path style="fill:currentColor;" d="M39.229,19.023h-7.76C30.606,13.738,26.033,9.7,20.504,9.7c-5.529,0-10.102,4.037-10.967,9.322H1.76
		C0.785,19.026-0.004,19.819,0,20.795c0.002,0.976,0.795,1.764,1.771,1.76h37.471c0.975-0.003,1.762-0.785,1.76-1.76
		C40.998,19.819,40.205,19.02,39.229,19.023z M20.504,13.252c3.562,0,6.541,2.46,7.351,5.771H13.156
		C13.965,15.712,16.943,13.252,20.504,13.252z"/>
	<path style="fill:currentColor;" d="M20.504,7.557c0.988,0,1.791-0.801,1.791-1.79V1.791C22.295,0.803,21.492,0,20.504,0
		c-0.988,0-1.789,0.803-1.791,1.791l0.002,3.976C18.715,6.756,19.516,7.557,20.504,7.557z"/>
	<path style="fill:currentColor;" d="M8.613,11.422c0.697,0.699,1.832,0.699,2.529,0c0.699-0.699,0.699-1.834,0-2.533l-2.81-2.811
		C7.633,5.38,6.5,5.38,5.801,6.078c-0.699,0.698-0.699,1.833,0,2.53L8.613,11.422z"/>
	<path style="fill:currentColor;" d="M32.39,11.443L35.2,8.632c0.699-0.699,0.699-1.833,0-2.531c-0.697-0.698-1.832-0.698-2.531,0
		l-2.811,2.812c-0.699,0.699-0.699,1.832,0,2.53C30.558,12.142,31.688,12.143,32.39,11.443z"/>
</g>
</svg>
