<?xml version="1.0" encoding="iso-8859-1"?>
<!-- Generator: Adobe Illustrator 15.0.0, SVG Export Plug-In . SVG Version: 6.00 Build 0)  -->
<!DOCTYPE svg PUBLIC "-//W3C//DTD SVG 1.1//EN" "http://www.w3.org/Graphics/SVG/1.1/DTD/svg11.dtd">
<svg version="1.1" id="Layer_1" xmlns="http://www.w3.org/2000/svg" xmlns:xlink="http://www.w3.org/1999/xlink"  
	 viewBox="0 0 30.096 39.596" style="enable-background:new 0 0 30.096 39.596;"
	 xml:space="preserve">
<g id="_x34_1">
	<g>
		<path style="fill:currentColor;" d="M0,10.609c0-0.976,0.791-1.766,1.768-1.766H16.03c0.976,0,1.766,0.79,1.766,1.766v0.785
			c0,0.976-0.79,1.767-1.766,1.767L4.826,13.164v8.098h7.317c0.976,0,1.767,0.791,1.767,1.766v0.785
			c0,0.977-0.791,1.767-1.767,1.767H4.826l-0.008,12.25c0,0.976-0.791,1.768-1.768,1.768H1.767C0.791,39.596,0,38.804,0,37.828
			V10.609z"/>
	</g>
	<g>
		<path style="fill:currentColor;" d="M21.895,2.593c0.221-0.518,0.522-0.969,0.908-1.354c0.383-0.384,0.836-0.688,1.354-0.908
			C24.676,0.109,25.233,0,25.829,0c0.595,0,1.153,0.108,1.672,0.33c0.52,0.222,0.971,0.524,1.354,0.907
			c0.384,0.387,0.688,0.838,0.908,1.354c0.221,0.519,0.33,1.077,0.33,1.673c0,0.595-0.109,1.151-0.33,1.671
			c-0.222,0.52-0.524,0.972-0.908,1.354c-0.385,0.385-0.836,0.688-1.354,0.908c-0.518,0.22-1.077,0.331-1.672,0.331
			c-0.596,0-1.153-0.11-1.672-0.331c-0.519-0.222-0.972-0.523-1.354-0.908c-0.386-0.384-0.688-0.836-0.908-1.354
			c-0.221-0.52-0.332-1.076-0.332-1.671C21.562,3.67,21.675,3.111,21.895,2.593z M23.639,5.244c0.134,0.308,0.312,0.575,0.533,0.809
			c0.22,0.23,0.475,0.413,0.765,0.547c0.287,0.136,0.585,0.203,0.893,0.203c0.309,0,0.604-0.067,0.895-0.203
			c0.286-0.134,0.543-0.315,0.765-0.547c0.22-0.232,0.396-0.501,0.532-0.809c0.135-0.308,0.202-0.635,0.202-0.979
			c0-0.347-0.067-0.674-0.202-0.979c-0.136-0.309-0.312-0.576-0.532-0.81c-0.222-0.229-0.479-0.412-0.765-0.546
			c-0.289-0.135-0.586-0.202-0.895-0.202c-0.308,0-0.604,0.067-0.893,0.202c-0.29,0.134-0.545,0.317-0.765,0.546
			c-0.222,0.232-0.399,0.501-0.533,0.81c-0.136,0.307-0.201,0.634-0.201,0.979C23.438,4.61,23.504,4.938,23.639,5.244z"/>
	</g>
</g>
</svg>
