<?xml version="1.0" encoding="iso-8859-1"?>
<!-- Generator: Adobe Illustrator 15.0.0, SVG Export Plug-In . SVG Version: 6.00 Build 0)  -->
<!DOCTYPE svg PUBLIC "-//W3C//DTD SVG 1.1//EN" "http://www.w3.org/Graphics/SVG/1.1/DTD/svg11.dtd">
<svg version="1.1" id="Layer_1" xmlns="http://www.w3.org/2000/svg" xmlns:xlink="http://www.w3.org/1999/xlink"  
	 viewBox="0 0 41.02 40.257" style="enable-background:new 0 0 41.02 40.257;"
	 xml:space="preserve">
<g id="_x35_7">
	<g>
		<path style="fill:currentColor;" d="M22.291,1.767C22.291,0.791,21.502,0,20.527,0c-0.977,0.001-1.768,0.792-1.768,1.767v3.922
			c0,0.976,0.791,1.768,1.768,1.768c0.976,0,1.765-0.792,1.765-1.768V1.767z"/>
		<path style="fill:currentColor;" d="M8.516,5.995c-0.688-0.689-1.807-0.689-2.496,0c-0.688,0.69-0.688,1.809,0,2.498l2.773,2.774
			c0.688,0.688,1.809,0.688,2.498,0c0.688-0.689,0.688-1.809,0-2.497L8.516,5.995z"/>
		<path style="fill:currentColor;" d="M1.768,18.728C0.793,18.728,0,19.518,0,20.493c0.002,0.977,0.793,1.766,1.768,1.766H5.69
			c0.976,0,1.769-0.789,1.769-1.766c0-0.976-0.793-1.766-1.769-1.766L1.768,18.728L1.768,18.728z"/>
		<path style="fill:currentColor;" d="M39.254,22.292c0.977,0,1.766-0.791,1.766-1.769c0-0.975-0.789-1.766-1.766-1.766h-3.922
			c-0.978,0-1.769,0.791-1.769,1.766c0,0.978,0.791,1.769,1.769,1.767L39.254,22.292z"/>
		<path style="fill:currentColor;" d="M35.023,8.517c0.691-0.689,0.691-1.809,0-2.498c-0.688-0.689-1.807-0.689-2.496,0l-2.772,2.773
			c-0.689,0.689-0.689,1.809,0,2.498c0.688,0.689,1.807,0.689,2.496-0.001L35.023,8.517z"/>
		<path style="fill:currentColor;" d="M39.26,28.343c0.975-0.002,1.764-0.785,1.76-1.76c-0.004-0.977-0.795-1.775-1.771-1.771
			l-8.592-0.01c0.547-1.303,0.848-2.754,0.848-4.254c0-6.062-4.914-10.978-10.978-10.978c-6.062,0-10.979,4.915-10.979,10.978
			c0,1.508,0.307,2.946,0.857,4.254l-8.63,0.01c-0.975,0.002-1.764,0.796-1.76,1.771c0.002,0.976,0.797,1.763,1.771,1.76H39.26z
			 M20.527,13.073c4.127,0,7.474,3.348,7.474,7.475c0,1.573-0.488,3.045-1.318,4.25H14.381c-0.836-1.207-1.328-2.672-1.328-4.25
			C13.053,16.421,16.4,13.073,20.527,13.073z"/>
	</g>
	<path style="fill:currentColor;" d="M17.074,37.162h2.442v2.49c0,0.334,0.271,0.604,0.604,0.604H20.9c0.334,0,0.605-0.271,0.605-0.604
		v-2.49h2.445c0.334,0,0.604-0.271,0.604-0.605c0-0.135-0.045-0.262-0.119-0.362l-3.444-4.677c-0.111-0.146-0.287-0.24-0.482-0.24
		c-0.201,0-0.379,0.098-0.488,0.246l-3.438,4.68c-0.072,0.1-0.115,0.223-0.115,0.354C16.467,36.891,16.738,37.162,17.074,37.162z"/>
</g>
</svg>
