<?xml version="1.0" encoding="iso-8859-1"?>
<!-- Generator: Adobe Illustrator 15.0.0, SVG Export Plug-In . SVG Version: 6.00 Build 0)  -->
<!DOCTYPE svg PUBLIC "-//W3C//DTD SVG 1.1//EN" "http://www.w3.org/Graphics/SVG/1.1/DTD/svg11.dtd">
<svg version="1.1" id="Layer_1" xmlns="http://www.w3.org/2000/svg" xmlns:xlink="http://www.w3.org/1999/xlink"  
	 viewBox="0 0 14.967 40.324" style="enable-background:new 0 0 14.967 40.324;"
	 xml:space="preserve">
<g id="_x35_3">
	<path style="fill:currentColor;" d="M11.978,26.869L11.976,4.496C11.976,2.014,9.964,0,7.482,0C5,0,2.989,2.014,2.989,4.496v22.371
		c-1.811,1.367-2.986,3.529-2.986,5.973c0,4.135,3.349,7.484,7.481,7.484c4.13,0,7.482-3.35,7.482-7.484
		C14.966,30.396,13.788,28.234,11.978,26.869z M7.486,37.58c-2.619,0-4.741-2.121-4.741-4.738c0-1.992,1.231-3.695,2.974-4.396
		V4.637c0-0.977,0.791-1.768,1.764-1.768c0.976,0,1.767,0.791,1.767,1.768v1.861h-1.41c-0.345,0-0.625,0.279-0.625,0.624
		c0,0.344,0.279,0.624,0.625,0.625h1.41v3.588h-1.41c-0.345,0-0.625,0.28-0.625,0.624s0.279,0.625,0.625,0.625h1.41v2.983h-1.41
		c-0.345,0-0.625,0.28-0.625,0.625c0,0.343,0.279,0.623,0.625,0.624h1.41v2.984h-1.41c-0.345,0-0.625,0.279-0.625,0.625
		c0,0.342,0.279,0.623,0.625,0.623h1.41v7.396c1.74,0.701,2.973,2.404,2.973,4.396C12.222,35.459,10.101,37.58,7.486,37.58z"/>
	<path style="fill:currentColor;" d="M8.249,29.715v-4.914c0-0.424-0.344-0.768-0.765-0.768c-0.424,0-0.768,0.344-0.768,0.768v4.914
		c-1.41,0.346-2.461,1.607-2.461,3.125c0,1.783,1.445,3.229,3.23,3.229c1.781,0,3.226-1.445,3.226-3.229
		C10.712,31.322,9.661,30.059,8.249,29.715z"/>
</g>
</svg>
