<?xml version="1.0" encoding="iso-8859-1"?>
<!-- Generator: Adobe Illustrator 15.0.0, SVG Export Plug-In . SVG Version: 6.00 Build 0)  -->
<!DOCTYPE svg PUBLIC "-//W3C//DTD SVG 1.1//EN" "http://www.w3.org/Graphics/SVG/1.1/DTD/svg11.dtd">
<svg version="1.1" id="Layer_1" xmlns="http://www.w3.org/2000/svg" xmlns:xlink="http://www.w3.org/1999/xlink"  
	 viewBox="0 0 14.967 40.324" style="enable-background:new 0 0 14.967 40.324;"
	 xml:space="preserve">
<g id="_x35_4">
	<path style="fill:currentColor;" d="M11.978,26.869L11.976,4.496C11.976,2.014,9.963,0,7.482,0C5,0,2.99,2.014,2.99,4.496v22.371
		C1.178,28.234,0,30.396,0,32.841c0,4.134,3.35,7.483,7.484,7.483c4.131,0,7.482-3.35,7.482-7.483
		C14.967,30.396,13.789,28.234,11.978,26.869z M7.484,37.58c-2.617,0-4.738-2.121-4.738-4.738c0-1.992,1.229-3.695,2.973-4.396
		V4.637c0-0.977,0.789-1.768,1.766-1.768c0.975,0,1.766,0.791,1.766,1.768v1.861H7.838c-0.344,0-0.623,0.279-0.623,0.624
		c0,0.344,0.279,0.624,0.623,0.625H9.25v3.588H7.838c-0.344,0-0.623,0.28-0.623,0.624c0,0.344,0.279,0.625,0.623,0.625H9.25v15.861
		c1.742,0.701,2.972,2.404,2.972,4.396C12.222,35.459,10.101,37.58,7.484,37.58z"/>
	<path style="fill:currentColor;" d="M8.25,29.715V16.336c0-0.424-0.342-0.769-0.766-0.769c-0.424,0-0.768,0.345-0.768,0.769v13.379
		c-1.412,0.346-2.461,1.608-2.461,3.126c0,1.783,1.445,3.229,3.229,3.229c1.785,0,3.227-1.445,3.227-3.229
		C10.711,31.323,9.66,30.061,8.25,29.715z"/>
</g>
</svg>
