<?xml version="1.0" encoding="iso-8859-1"?>
<!-- Generator: Adobe Illustrator 15.0.0, SVG Export Plug-In . SVG Version: 6.00 Build 0)  -->
<!DOCTYPE svg PUBLIC "-//W3C//DTD SVG 1.1//EN" "http://www.w3.org/Graphics/SVG/1.1/DTD/svg11.dtd">
<svg version="1.1" id="Layer_1" xmlns="http://www.w3.org/2000/svg" xmlns:xlink="http://www.w3.org/1999/xlink"  
	 viewBox="0 0 41.017 28.342" style="enable-background:new 0 0 41.017 28.342;"
	 xml:space="preserve">
<g id="_x36_0">
	<path style="fill:currentColor;" d="M18.724,26.576c0,0.977,0.791,1.766,1.766,1.766c0.977,0,1.768-0.791,1.768-1.766v-3.922
		c0-0.975-0.791-1.767-1.768-1.767c-0.975,0-1.766,0.792-1.766,1.767V26.576z"/>
	<path style="fill:currentColor;" d="M32.501,22.347c0.689,0.689,1.809,0.689,2.496,0c0.689-0.69,0.689-1.808,0-2.497l-2.773-2.773
		c-0.689-0.69-1.809-0.69-2.498,0c-0.689,0.689-0.689,1.807,0,2.496L32.501,22.347z"/>
	<path style="fill:currentColor;" d="M39.251,9.615c0.975,0,1.766-0.791,1.766-1.766c-0.002-0.975-0.791-1.767-1.766-1.767h-3.924
		c-0.975,0-1.766,0.792-1.766,1.767s0.791,1.766,1.766,1.766H39.251z"/>
	<path style="fill:currentColor;" d="M1.763,6.051c-0.975,0-1.766,0.792-1.766,1.766c0,0.976,0.791,1.767,1.766,1.767h3.922
		c0.977,0,1.768-0.791,1.768-1.767c0-0.974-0.791-1.766-1.768-1.764L1.763,6.051z"/>
	<path style="fill:currentColor;" d="M5.993,19.826c-0.689,0.689-0.689,1.809,0,2.498s1.809,0.689,2.498,0l2.771-2.774
		c0.691-0.69,0.691-1.807,0-2.498c-0.688-0.688-1.807-0.688-2.494,0.001L5.993,19.826z"/>
	<path style="fill:currentColor;" d="M1.757,0c-0.975,0.004-1.762,0.785-1.76,1.76c0.004,0.977,0.797,1.774,1.771,1.771l8.592,0.01
		C9.815,4.843,9.513,6.295,9.513,7.795c0,6.062,4.916,10.978,10.977,10.978c6.062,0,10.979-4.915,10.979-10.978
		c0-1.509-0.305-2.945-0.857-4.254l8.629-0.01c0.977-0.003,1.764-0.797,1.76-1.771C40.997,0.784,40.202-0.004,39.228,0H1.757z
		 M20.489,15.27c-4.127,0-7.473-3.347-7.473-7.475c0-1.574,0.49-3.045,1.318-4.249h12.301c0.834,1.208,1.328,2.669,1.328,4.249
		C27.964,11.923,24.618,15.27,20.489,15.27z"/>
</g>
</svg>
