<?xml version="1.0" encoding="iso-8859-1"?>
<!-- Generator: Adobe Illustrator 15.0.0, SVG Export Plug-In . SVG Version: 6.00 Build 0)  -->
<!DOCTYPE svg PUBLIC "-//W3C//DTD SVG 1.1//EN" "http://www.w3.org/Graphics/SVG/1.1/DTD/svg11.dtd">
<svg version="1.1" id="Layer_1" xmlns="http://www.w3.org/2000/svg" xmlns:xlink="http://www.w3.org/1999/xlink"  
	 viewBox="0 0 41.018 40.257" style="enable-background:new 0 0 41.018 40.257;"
	 xml:space="preserve">
<g id="_x35_6">
	<g>
		<path style="fill:currentColor;" d="M22.291,1.767C22.291,0.791,21.502,0,20.525,0c-0.977,0.001-1.766,0.792-1.768,1.767l0.002,3.922
			c0,0.976,0.789,1.768,1.766,1.768c0.978,0,1.767-0.792,1.767-1.768V1.767z"/>
		<path style="fill:currentColor;" d="M8.516,5.995c-0.688-0.689-1.807-0.689-2.498,0c-0.688,0.69-0.688,1.809,0,2.498l2.775,2.774
			c0.688,0.688,1.807,0.688,2.498,0c0.688-0.689,0.688-1.809,0-2.497L8.516,5.995z"/>
		<path style="fill:currentColor;" d="M1.766,18.728C0.791,18.728,0,19.518,0,20.493c0,0.977,0.791,1.766,1.766,1.766H5.69
			c0.976,0,1.767-0.789,1.767-1.766c0-0.976-0.791-1.766-1.767-1.766L1.766,18.728L1.766,18.728z"/>
		<path style="fill:currentColor;" d="M39.252,22.292c0.977,0,1.766-0.791,1.766-1.769c0-0.975-0.789-1.766-1.764-1.766H35.33
			c-0.976,0-1.767,0.791-1.767,1.766c0,0.978,0.791,1.769,1.767,1.767L39.252,22.292z"/>
		<path style="fill:currentColor;" d="M35.021,8.517c0.689-0.689,0.691-1.809,0-2.498c-0.688-0.689-1.807-0.689-2.494,0l-2.774,2.773
			c-0.689,0.689-0.689,1.809,0,2.498c0.688,0.689,1.807,0.689,2.498-0.001L35.021,8.517z"/>
		<path style="fill:currentColor;" d="M39.26,28.343c0.973-0.002,1.762-0.785,1.758-1.76c-0.002-0.977-0.795-1.775-1.77-1.771
			l-8.595-0.01c0.548-1.303,0.851-2.754,0.851-4.254c0-6.062-4.914-10.978-10.979-10.978c-6.062,0-10.977,4.915-10.977,10.978
			c0,1.508,0.305,2.946,0.854,4.254l-8.627,0.01c-0.975,0.002-1.764,0.796-1.76,1.771c0.002,0.976,0.795,1.763,1.771,1.76H39.26z
			 M20.525,13.073c4.129,0,7.474,3.348,7.474,7.475c0,1.573-0.488,3.045-1.318,4.25H14.381c-0.836-1.207-1.328-2.672-1.328-4.25
			C13.053,16.421,16.398,13.073,20.525,13.073z"/>
	</g>
	<path style="fill:currentColor;" d="M23.963,34.373H21.52v-2.49c0-0.334-0.271-0.605-0.604-0.605h-0.781
		c-0.334,0-0.605,0.271-0.605,0.605v2.49h-2.444c-0.334,0-0.604,0.271-0.604,0.604c0,0.136,0.043,0.261,0.119,0.362l3.445,4.677
		c0.111,0.146,0.285,0.239,0.481,0.239c0.201,0,0.382-0.096,0.49-0.246l3.438-4.68c0.071-0.099,0.114-0.221,0.114-0.354
		C24.57,34.644,24.299,34.373,23.963,34.373z"/>
</g>
</svg>
