<?xml version="1.0" encoding="iso-8859-1"?>
<!-- Generator: Adobe Illustrator 15.0.0, SVG Export Plug-In . SVG Version: 6.00 Build 0)  -->
<!DOCTYPE svg PUBLIC "-//W3C//DTD SVG 1.1//EN" "http://www.w3.org/Graphics/SVG/1.1/DTD/svg11.dtd">
<svg version="1.1" id="Layer_1" xmlns="http://www.w3.org/2000/svg" xmlns:xlink="http://www.w3.org/1999/xlink"  
	 viewBox="0 0 38.411 40.129" style="enable-background:new 0 0 38.411 40.129;"
	 xml:space="preserve">
<g id="_x34_2">
	<g>
		<path style="fill:currentColor;" d="M30.243,2.584c0.221-0.517,0.521-0.967,0.903-1.35c0.386-0.381,0.834-0.684,1.351-0.904
			C33.013,0.11,33.569,0,34.161,0c0.594,0,1.149,0.11,1.668,0.33c0.517,0.221,0.965,0.523,1.348,0.904
			c0.383,0.383,0.686,0.833,0.904,1.35c0.221,0.517,0.33,1.072,0.33,1.666c0,0.593-0.109,1.148-0.33,1.664
			c-0.22,0.518-0.521,0.967-0.904,1.35c-0.383,0.384-0.831,0.686-1.348,0.904c-0.519,0.22-1.074,0.331-1.668,0.331
			c-0.592,0-1.147-0.111-1.664-0.331c-0.517-0.219-0.965-0.521-1.351-0.904c-0.382-0.383-0.685-0.832-0.903-1.35
			c-0.22-0.516-0.33-1.071-0.33-1.664C29.913,3.656,30.023,3.101,30.243,2.584z M31.98,5.226c0.133,0.306,0.312,0.573,0.531,0.804
			c0.219,0.231,0.473,0.412,0.761,0.546c0.286,0.135,0.583,0.2,0.889,0.2c0.307,0,0.604-0.065,0.891-0.2
			c0.289-0.134,0.543-0.315,0.763-0.546s0.396-0.498,0.531-0.804c0.133-0.306,0.2-0.632,0.2-0.976c0-0.346-0.067-0.67-0.2-0.977
			c-0.136-0.307-0.312-0.574-0.531-0.805c-0.22-0.229-0.474-0.41-0.763-0.544c-0.286-0.134-0.584-0.202-0.891-0.202
			c-0.306,0-0.603,0.068-0.889,0.202c-0.288,0.134-0.541,0.315-0.761,0.544c-0.22,0.23-0.398,0.498-0.531,0.805
			c-0.134,0.307-0.201,0.631-0.201,0.977C31.779,4.594,31.847,4.92,31.98,5.226z"/>
	</g>
	<path style="fill:currentColor;" d="M25.938,29.179h-1.229c-0.758,0-1.418,0.521-1.668,1.192c-1.193,3.293-4.36,5.448-8.66,5.448
		c-7.233,0-9.434-6.196-9.434-11.641s2.42-11.522,9.497-11.522c4.297,0,7.412,2.085,8.604,5.378c0.25,0.671,0.91,1.194,1.67,1.194
		h1.227c0.977,0,1.768-0.791,1.768-1.767c0-0.184-0.027-0.362-0.082-0.53c-0.248-0.837-0.573-1.663-0.979-2.387
		c-0.769-1.366-1.743-2.509-2.923-3.433c-1.178-0.924-2.514-1.628-4.007-2.111c-1.493-0.482-3.078-0.725-4.754-0.725
		c-2.332,0-4.429,0.412-6.29,1.236c-1.862,0.826-3.433,1.961-4.711,3.41c-1.281,1.451-2.261,3.15-2.943,5.097
		C0.341,19.969,0,22.079,0,24.353c0,2.217,0.341,4.285,1.023,6.205c0.683,1.918,1.662,3.589,2.943,5.01
		c1.278,1.421,2.849,2.536,4.711,3.347c1.859,0.811,3.952,1.215,6.281,1.217l0,0h0.002c0.002,0,0.005,0,0.007,0l0,0
		c1.673-0.002,3.255-0.242,4.745-0.727c1.492-0.482,2.828-1.188,4.008-2.109c1.18-0.924,2.152-2.067,2.921-3.433
		c0.407-0.726,0.735-1.55,0.981-2.388c0.053-0.167,0.082-0.346,0.082-0.531C27.704,29.969,26.915,29.179,25.938,29.179z"/>
</g>
</svg>
